<!DOCTYPE svg PUBLIC "-//W3C//DTD SVG 20010904//EN" "http://www.w3.org/TR/2001/REC-SVG-20010904/DTD/svg10.dtd">
<svg version="1.0" xmlns="http://www.w3.org/2000/svg" width="1024px" height="1024px" viewBox="0 0 10240 10240" preserveAspectRatio="xMidYMid meet">
<g id="layer102" fill="#fafafa" stroke="none">
 <path d="M5096 7027 c-24 -17 -18 -61 9 -65 71 -10 64 14 67 -245 l3 -232 60 0 60 0 0 241 c0 228 -1 243 -20 264 -40 46 -139 66 -179 37z"/>
 <path d="M2450 6904 c-64 -24 -90 -57 -90 -117 0 -66 107 -127 220 -127 l46 0 -5 -42 c-5 -33 -12 -46 -34 -58 -26 -14 -31 -13 -77 13 -64 35 -94 35 -117 1 -17 -26 -17 -27 12 -51 68 -54 217 -68 274 -25 62 46 66 59 66 235 l0 162 -41 3 c-26 2 -45 -2 -53 -12 -10 -12 -16 -12 -42 1 -31 16 -133 27 -159 17z m136 -93 c38 -17 41 -21 36 -51 -5 -32 -5 -32 -50 -26 -79 11 -120 58 -74 85 24 15 41 13 88 -8z"/>
 <path d="M3347 6896 c-27 -7 -56 -20 -64 -29 -15 -14 -15 -18 1 -41 20 -31 48 -33 116 -9 45 16 49 16 74 -1 19 -12 26 -24 24 -39 -2 -18 -18 -27 -83 -49 -94 -31 -135 -68 -135 -122 0 -40 36 -96 73 -114 70 -34 206 -22 245 21 17 20 18 25 6 55 -11 25 -20 32 -41 32 -15 0 -36 -9 -47 -19 -33 -30 -69 -35 -96 -13 -36 29 -20 48 62 72 98 29 138 66 138 128 0 51 -26 94 -71 118 -42 21 -144 27 -202 10z"/>
 <path d="M5470 6904 c-64 -24 -90 -57 -90 -117 0 -66 107 -127 220 -127 l46 0 -5 -42 c-5 -33 -12 -46 -34 -58 -26 -14 -31 -13 -77 13 -64 35 -94 35 -117 1 -17 -26 -17 -27 12 -51 68 -54 217 -68 274 -25 62 46 66 59 66 235 l0 162 -41 3 c-26 2 -45 -2 -53 -12 -10 -12 -16 -12 -42 1 -31 16 -133 27 -159 17z m136 -93 c38 -17 41 -21 36 -51 -5 -32 -5 -32 -50 -26 -79 11 -120 58 -74 85 24 15 41 13 88 -8z"/>
 <path d="M6150 6904 c-64 -24 -90 -57 -90 -117 0 -66 107 -127 220 -127 l46 0 -5 -42 c-5 -33 -12 -46 -34 -58 -26 -14 -31 -13 -77 13 -64 35 -94 35 -117 1 -17 -26 -17 -27 12 -51 68 -54 217 -68 274 -25 62 46 66 59 66 235 l0 162 -41 3 c-26 2 -45 -2 -53 -12 -10 -12 -16 -12 -42 1 -31 16 -133 27 -159 17z m136 -93 c38 -17 41 -21 36 -51 -5 -32 -5 -32 -50 -26 -79 11 -120 58 -74 85 24 15 41 13 88 -8z"/>
 <path d="M7950 6904 c-64 -24 -90 -57 -90 -117 0 -66 107 -127 220 -127 l46 0 -5 -42 c-5 -33 -12 -46 -34 -58 -26 -14 -31 -13 -77 13 -64 35 -94 35 -117 1 -17 -26 -17 -27 12 -51 68 -54 217 -68 274 -25 62 46 66 59 66 235 l0 162 -41 3 c-26 2 -45 -2 -53 -12 -10 -12 -16 -12 -42 1 -31 16 -133 27 -159 17z m136 -93 c38 -17 41 -21 36 -51 -5 -32 -5 -32 -50 -26 -79 11 -120 58 -74 85 24 15 41 13 88 -8z"/>
 <path d="M1335 6888 c-3 -7 -4 -139 -3 -293 l3 -280 60 0 60 0 3 128 c1 75 7 127 12 127 6 0 36 -28 68 -62 31 -35 86 -93 122 -131 l64 -68 61 3 c37 2 60 7 60 15 0 6 -52 69 -115 138 -63 70 -115 131 -115 136 0 5 58 70 128 144 71 74 125 139 122 145 -3 5 -34 10 -68 10 l-62 0 -120 -125 c-66 -69 -128 -125 -137 -125 -15 0 -18 15 -20 123 l-3 122 -58 3 c-40 2 -59 -1 -62 -10z"/>
 <path d="M2000 6891 c-84 -26 -135 -79 -149 -157 -34 -180 113 -301 306 -252 146 36 200 234 96 349 -52 58 -169 85 -253 60z m137 -93 c65 -53 51 -202 -21 -237 -38 -18 -99 0 -122 34 -18 27 -24 112 -11 158 16 57 108 84 154 45z"/>
 <path d="M2845 6888 c-3 -7 -4 -141 -3 -298 l3 -285 60 0 60 0 0 295 0 295 -58 3 c-40 2 -59 -1 -62 -10z"/>
 <path d="M3075 6888 c-3 -8 -4 -101 -3 -208 l3 -195 60 0 60 0 0 205 0 205 -58 3 c-41 2 -59 -1 -62 -10z"/>
 <path d="M3705 6888 c-3 -8 -4 -101 -3 -208 l3 -195 60 0 60 0 0 205 0 205 -58 3 c-41 2 -59 -1 -62 -10z"/>
 <path d="M4195 6888 c-3 -7 -4 -139 -3 -293 l3 -280 145 0 c93 1 159 5 183 14 116 40 160 169 92 272 -35 54 -98 81 -206 87 l-88 5 -3 101 -3 101 -58 3 c-40 2 -59 -1 -62 -10z m234 -284 c53 -11 81 -46 81 -101 0 -27 -7 -58 -15 -70 -18 -26 -72 -43 -132 -43 l-43 0 0 110 0 110 39 0 c21 0 52 -3 70 -6z"/>
 <path d="M4821 6889 c-88 -27 -143 -107 -143 -209 0 -107 59 -180 165 -202 125 -26 232 29 257 133 9 35 9 53 0 68 -10 20 -19 21 -156 21 l-146 0 6 26 c11 44 36 72 74 85 31 10 45 9 104 -12 l68 -23 26 26 c16 15 23 31 19 38 -25 41 -199 72 -274 49z m169 -265 c0 -37 -67 -79 -111 -69 -27 6 -69 46 -69 66 0 5 41 9 90 9 50 0 90 -3 90 -6z"/>
 <path d="M5865 6888 c-3 -7 -4 -141 -3 -298 l3 -285 60 0 60 0 0 295 0 295 -58 3 c-40 2 -59 -1 -62 -10z"/>
 <path d="M6545 6888 c-3 -8 -4 -101 -3 -208 l3 -195 45 -3 c31 -2 48 1 56 12 10 15 16 14 59 -5 38 -17 60 -20 104 -16 47 5 60 12 95 47 l41 40 0 168 0 167 -60 0 -60 0 -5 -157 c-3 -104 -9 -161 -17 -169 -23 -23 -72 -14 -104 18 l-31 30 -1 139 -2 139 -58 3 c-41 2 -59 -1 -62 -10z"/>
 <path d="M7315 6888 c-3 -7 -4 -139 -3 -293 l3 -280 60 0 60 0 3 128 c1 75 7 127 12 127 6 0 36 -28 68 -62 31 -35 86 -93 122 -131 l64 -68 61 3 c37 2 60 7 60 15 0 6 -52 69 -115 138 -63 70 -115 131 -115 136 0 5 58 70 128 144 71 74 125 139 122 145 -3 5 -34 10 -68 10 l-62 0 -120 -125 c-66 -69 -128 -125 -137 -125 -15 0 -18 15 -20 123 l-3 122 -58 3 c-40 2 -59 -1 -62 -10z"/>
 <path d="M8345 6888 c-3 -7 -4 -141 -3 -298 l3 -285 60 0 60 0 5 163 5 163 75 -76 74 -75 58 0 c31 0 60 5 64 11 4 7 -30 48 -79 97 l-86 85 91 103 c49 57 87 108 83 114 -3 5 -32 10 -63 10 l-58 0 -79 -96 -80 -96 -5 94 -5 93 -58 3 c-40 2 -59 -1 -62 -10z"/>
 <path d="M8815 6888 c-3 -8 -4 -101 -3 -208 l3 -195 60 0 60 0 0 205 0 205 -58 3 c-41 2 -59 -1 -62 -10z"/>
 <path d="M3082 6404 c-45 -31 -21 -91 40 -101 50 -8 88 16 88 57 0 35 -31 60 -75 60 -17 0 -41 -7 -53 -16z"/>
 <path d="M3712 6404 c-45 -31 -21 -91 40 -101 50 -8 88 16 88 57 0 35 -31 60 -75 60 -17 0 -41 -7 -53 -16z"/>
 <path d="M5182 6404 c-47 -33 -12 -104 51 -104 45 0 77 25 77 60 0 35 -31 60 -75 60 -17 0 -41 -7 -53 -16z"/>
 <path d="M8822 6404 c-45 -31 -21 -91 40 -101 50 -8 88 16 88 57 0 35 -31 60 -75 60 -17 0 -41 -7 -53 -16z"/>
 <path d="M2871 6166 c-16 -20 -16 -1053 0 -1072 15 -19 218 -20 242 -1 14 11 16 63 20 525 3 477 2 513 -14 528 -13 12 -40 16 -111 16 -51 0 -100 4 -109 9 -11 6 -21 4 -28 -5z"/>
 <path d="M5514 6159 c-18 -20 -19 -46 -22 -531 -2 -468 -1 -512 14 -529 15 -17 33 -19 139 -19 81 0 125 4 133 12 16 16 17 1039 2 1069 -10 17 -22 19 -129 19 -107 0 -120 -2 -137 -21z"/>
 <path d="M8155 6160 c-13 -14 -15 -90 -15 -536 0 -391 3 -523 12 -532 8 -8 53 -12 135 -12 111 0 123 2 133 19 16 31 14 1032 -2 1053 -20 25 -242 31 -263 8z"/>
 <path d="M1300 6156 c-16 -16 -13 -1051 3 -1064 6 -6 60 -11 118 -11 88 -1 110 2 128 17 l22 17 -1 510 c-1 434 -3 512 -15 525 -12 11 -43 14 -130 15 -64 0 -120 -4 -125 -9z"/>
 <path d="M2358 6150 c-18 -14 -19 -43 -19 -528 0 -371 3 -518 12 -528 8 -10 40 -13 138 -11 l126 2 3 526 c2 474 1 528 -14 540 -24 20 -222 19 -246 -1z"/>
 <path d="M4048 6163 c-65 -3 -100 -8 -107 -17 -15 -18 -16 -1035 -2 -1049 6 -6 60 -11 120 -13 97 -2 113 0 136 17 l25 20 0 509 0 509 -30 16 c-16 8 -33 14 -37 13 -4 -1 -51 -4 -105 -5z"/>
 <path d="M4454 6152 l-24 -13 0 -503 c0 -613 -15 -558 154 -553 61 2 117 7 124 11 18 11 17 1039 0 1054 -20 16 -224 19 -254 4z"/>
 <path d="M6045 6150 c-13 -15 -15 -87 -15 -534 0 -285 2 -521 5 -527 3 -5 57 -8 120 -6 88 2 118 6 130 18 14 14 16 77 16 524 -1 447 -2 511 -16 524 -24 24 -219 24 -240 1z"/>
 <path d="M6563 6153 l-23 -15 0 -513 c0 -475 1 -513 18 -527 12 -10 48 -15 134 -16 107 -2 118 -1 128 17 6 13 10 194 10 530 0 476 -1 511 -17 519 -10 5 -56 9 -103 8 -47 -1 -94 1 -105 5 -12 4 -30 0 -42 -8z"/>
 <path d="M7096 6155 c-21 -10 -21 -17 -24 -521 -2 -415 0 -513 11 -528 20 -27 231 -34 259 -9 17 15 18 46 18 528 0 435 -2 514 -14 525 -19 15 -222 19 -250 5z"/>
 <path d="M7630 6152 c-21 -17 -21 -18 -20 -527 0 -456 2 -511 17 -527 14 -16 31 -18 137 -16 l121 3 3 529 c1 342 -1 533 -8 540 -5 5 -59 11 -119 13 -92 2 -113 0 -131 -15z"/>
 <path d="M1825 6150 c-20 -7 -20 -19 -25 -511 l-5 -504 22 -21 c18 -18 39 -23 128 -29 84 -6 110 -4 120 6 11 11 15 118 18 526 4 461 2 514 -12 526 -18 15 -210 21 -246 7z"/>
 <path d="M3402 6148 c-18 -18 -17 -1041 1 -1056 9 -7 55 -10 126 -8 96 2 115 6 132 22 19 19 20 37 20 524 0 466 -2 506 -18 517 -23 17 -244 18 -261 1z"/>
 <path d="M4992 6147 l-23 -12 0 -515 c0 -592 -8 -546 96 -535 72 7 70 7 122 1 76 -10 73 -31 73 544 0 380 -3 509 -12 518 -16 16 -225 16 -256 -1z"/>
 <path d="M8683 6149 c-20 -20 -19 -1032 1 -1048 24 -20 215 -17 254 3 l32 17 0 509 c0 396 -3 511 -12 517 -23 14 -262 16 -275 2z"/>
 <path d="M1634 5039 c-4 -7 -8 -28 -10 -48 -2 -20 -8 -76 -14 -126 -5 -49 -11 -126 -13 -170 -2 -68 1 -84 18 -106 19 -24 149 -147 233 -221 46 -40 53 -70 27 -116 -8 -15 -30 -67 -50 -117 -51 -128 -65 -155 -77 -155 -6 0 -44 34 -84 75 -40 41 -80 75 -88 75 -13 0 -53 -15 -121 -44 -28 -12 -163 -62 -193 -72 -23 -7 -10 -65 18 -86 26 -19 27 -19 112 12 48 16 95 30 106 30 11 0 49 -33 92 -81 62 -68 105 -104 199 -164 9 -5 42 -29 74 -53 l57 -44 138 5 c247 9 279 20 398 130 63 59 66 75 16 101 -33 17 -32 17 -127 -39 -98 -58 -120 -64 -200 -58 -42 3 -78 10 -81 15 -6 9 9 83 32 157 8 25 14 58 14 75 0 17 6 42 13 57 8 14 16 48 20 76 7 58 18 82 65 136 17 20 32 47 33 60 0 12 3 40 5 62 2 22 7 95 12 163 6 89 12 126 23 132 8 5 102 9 210 8 109 0 202 3 208 6 15 10 14 101 -1 113 -7 6 -136 16 -286 23 -291 13 -302 12 -302 -34 0 -11 -7 -34 -15 -50 -8 -15 -15 -38 -15 -50 0 -20 -39 -187 -45 -194 -5 -5 -55 21 -55 29 0 5 -15 16 -32 24 -18 8 -55 28 -83 45 -27 16 -64 36 -81 44 -17 8 -35 23 -38 33 -4 9 -6 88 -5 174 0 87 -2 163 -6 168 -8 15 -92 14 -101 0z"/>
 <path d="M6245 5035 c-16 -8 -46 -14 -66 -15 -19 0 -44 -7 -55 -15 -10 -8 -29 -15 -41 -15 -12 0 -24 -4 -27 -9 -4 -5 -26 -19 -51 -31 -78 -38 -225 -204 -225 -254 0 -7 -6 -19 -14 -25 -8 -7 -17 -31 -20 -54 -15 -110 -19 -127 -31 -127 -8 0 -42 56 -76 125 -34 68 -75 137 -91 151 l-28 27 -42 -18 c-69 -30 -84 -48 -71 -87 13 -38 105 -264 132 -323 11 -22 34 -78 52 -124 27 -67 46 -96 93 -144 l58 -59 188 6 c224 8 216 12 224 -101 3 -43 12 -140 19 -216 12 -120 17 -140 37 -162 32 -34 99 -34 161 -2 l44 24 3 88 c2 57 8 95 17 109 8 11 15 28 15 38 0 27 43 85 75 100 103 49 148 80 218 151 42 43 77 84 77 90 0 6 6 18 14 26 23 27 55 136 62 209 7 72 -11 238 -27 248 -5 3 -9 12 -9 21 0 48 -105 203 -176 258 -60 47 -151 87 -239 105 -95 19 -166 21 -200 5z m177 -99 c49 -13 109 -38 168 -71 126 -71 208 -215 227 -401 10 -94 -49 -244 -123 -318 -59 -59 -141 -126 -154 -126 -19 0 -2 70 22 90 15 12 20 28 21 61 0 60 -13 130 -29 154 -8 11 -14 29 -14 41 0 12 -7 27 -15 34 -8 7 -15 29 -15 50 0 21 -7 43 -15 50 -8 7 -15 25 -15 40 0 15 -9 35 -19 44 -17 16 -24 16 -58 5 -21 -7 -47 -21 -57 -30 -19 -17 -19 -19 4 -91 13 -40 27 -89 31 -108 5 -19 15 -61 24 -94 19 -68 14 -109 -18 -149 -20 -24 -25 -25 -41 -14 -15 11 -16 17 -5 40 12 26 10 30 -31 72 l-44 45 -192 0 c-216 0 -209 -2 -238 83 -20 60 -21 167 -1 214 8 19 15 47 15 62 0 15 5 32 11 38 13 13 33 47 49 81 13 29 109 122 126 122 7 0 17 6 21 13 10 16 66 43 123 61 60 19 176 19 242 2z"/>
 <path d="M4190 5005 c-11 -13 -10 -67 3 -308 9 -161 21 -308 27 -327 13 -39 36 -123 51 -185 5 -22 14 -50 20 -62 6 -11 9 -36 6 -55 -10 -61 -29 -133 -38 -143 -5 -5 -9 -24 -9 -41 0 -43 -18 -53 -41 -23 -10 13 -24 32 -31 41 -8 10 -41 23 -81 30 -85 16 -100 35 -66 82 16 21 24 49 27 89 6 76 -11 97 -79 97 -60 0 -79 7 -79 30 0 17 45 125 70 172 17 31 11 48 -25 69 -19 12 -35 23 -35 25 0 3 12 28 26 56 27 53 108 258 126 318 9 30 7 36 -12 52 -28 23 -53 23 -72 1 -8 -10 -59 -107 -114 -216 -54 -110 -107 -203 -116 -208 -24 -13 -55 23 -63 75 -4 22 -13 50 -19 61 -7 11 -15 31 -18 45 -4 14 -16 50 -28 80 -12 30 -25 69 -29 85 -4 17 -13 39 -18 50 -6 11 -16 33 -22 48 -10 26 -15 28 -44 22 -51 -11 -59 -22 -51 -74 4 -25 13 -58 20 -73 8 -15 14 -39 14 -53 0 -15 5 -35 11 -46 14 -27 38 -111 50 -177 9 -51 8 -55 -15 -73 -21 -16 -24 -26 -19 -52 3 -18 12 -42 19 -54 8 -12 14 -32 14 -44 0 -11 6 -35 13 -52 46 -109 61 -174 53 -231 -4 -25 -11 -46 -15 -46 -5 0 -17 24 -28 53 -17 44 -32 62 -104 120 l-84 68 -22 -28 c-13 -16 -23 -36 -23 -46 0 -10 33 -56 73 -102 56 -64 76 -96 90 -141 9 -33 17 -68 17 -79 0 -11 7 -33 15 -49 8 -15 15 -39 15 -52 0 -16 12 -31 37 -49 21 -14 43 -25 49 -25 7 0 24 -6 39 -14 28 -15 91 -11 109 5 6 5 18 9 28 9 29 0 78 52 118 125 32 59 41 70 62 68 34 -2 137 -69 147 -96 22 -57 41 -138 41 -173 0 -22 7 -49 15 -60 8 -10 15 -26 15 -35 0 -26 65 -101 100 -115 101 -43 233 11 289 116 45 86 70 129 103 180 45 70 51 91 40 132 -11 41 1 78 26 78 25 0 36 15 50 65 6 22 17 59 23 82 12 38 11 44 -6 63 -12 13 -31 20 -54 20 -20 0 -56 6 -81 14 l-45 13 0 219 0 219 48 78 c26 43 47 79 47 81 0 3 25 48 55 100 43 74 53 100 46 114 -17 32 -69 74 -87 70 -16 -3 -82 -90 -125 -165 -9 -15 -45 -73 -81 -128 -59 -94 -98 -182 -98 -226 0 -27 -27 -89 -38 -89 -5 0 -25 44 -43 98 -33 95 -34 101 -39 302 l-5 205 -66 3 c-50 2 -69 -1 -79 -13z"/>
 <path d="M7674 4946 c-43 -19 -46 -36 -24 -109 10 -34 35 -123 55 -197 54 -206 55 -209 107 -298 26 -45 48 -85 48 -87 0 -3 23 -46 51 -97 63 -112 62 -119 -7 -273 -8 -16 -22 -52 -33 -80 -10 -27 -23 -51 -28 -52 -10 -4 -43 70 -43 94 0 19 -40 83 -107 171 -35 45 -63 85 -63 89 0 14 -54 63 -70 63 -18 0 -50 -30 -50 -46 0 -14 47 -103 143 -274 14 -25 31 -76 37 -115 7 -38 21 -97 31 -129 10 -33 19 -68 19 -79 0 -44 113 -147 161 -147 11 0 29 -5 40 -11 16 -8 37 -2 107 31 48 23 94 45 102 50 8 5 40 22 70 36 30 15 89 43 130 64 l75 36 0 220 c0 195 -2 221 -17 236 -21 21 -53 23 -65 6 -4 -7 -15 -94 -23 -193 -14 -172 -16 -180 -37 -183 -12 -2 -27 -10 -33 -18 -7 -8 -23 -14 -35 -14 -12 0 -28 -7 -35 -15 -10 -13 -50 -22 -50 -12 0 8 53 155 66 184 7 17 14 38 14 46 0 9 6 28 14 44 46 94 48 103 27 143 -18 34 -19 47 -11 126 5 49 14 105 19 124 6 19 11 65 11 103 0 44 7 87 21 125 12 31 28 74 35 96 8 21 31 73 51 115 19 42 41 92 48 112 13 36 12 38 -20 69 -54 53 -61 47 -172 -160 -20 -36 -41 -72 -47 -80 -25 -31 -61 -125 -78 -200 -6 -25 -14 -49 -19 -54 -5 -6 -9 -25 -9 -42 0 -18 -5 -36 -10 -39 -16 -10 -50 5 -50 22 0 8 -19 36 -41 61 -39 45 -89 136 -89 164 0 7 -6 30 -14 53 -14 41 -29 92 -67 230 -12 44 -26 86 -32 93 -12 16 -64 15 -103 -2z"/>
 <path d="M1665 3703 c-49 -13 -125 -104 -125 -151 0 -13 9 -45 21 -72 43 -101 151 -132 243 -70 47 32 66 70 66 137 0 49 -15 78 -62 116 -43 35 -101 51 -143 40z"/>
 <path d="M3592 3591 c-69 -44 -90 -121 -49 -182 31 -48 81 -71 137 -65 38 3 51 11 83 46 30 35 37 50 37 85 0 35 -7 50 -37 84 -33 36 -45 43 -88 47 -39 4 -57 1 -83 -15z"/>
 <path d="M6324 3487 c-113 -44 -150 -174 -73 -262 71 -81 169 -80 247 2 39 43 42 50 42 102 0 67 -20 102 -81 143 -45 30 -83 34 -135 15z"/>
 <path d="M7730 3362 c-87 -42 -92 -180 -8 -232 66 -41 109 -35 175 23 29 26 33 35 33 81 0 65 -32 113 -87 133 -49 17 -70 16 -113 -5z"/>
 <path d="M4223 3325 c-17 -7 -44 -32 -59 -54 -23 -35 -26 -48 -22 -93 5 -47 10 -57 52 -94 62 -57 93 -63 149 -29 25 14 57 43 72 65 49 70 21 153 -65 198 -50 25 -81 27 -127 7z"/>

 </g>
<g id="layer103" fill="#010101" stroke="none">
 <path d="M4416 9851 c-9 -15 23 -36 36 -23 5 5 7 15 4 21 -9 13 -33 14 -40 2z"/>
 <path d="M5175 9830 c-4 -7 -3 -16 3 -22 14 -14 45 -2 40 15 -6 16 -34 21 -43 7z"/>
 <path d="M5235 9830 c-4 -7 -3 -16 3 -22 14 -14 47 -6 47 12 0 18 -40 26 -50 10z"/>
 <path d="M5324 9829 c-10 -17 13 -36 27 -22 12 12 4 33 -11 33 -5 0 -12 -5 -16 -11z"/>
 <path d="M4200 9810 c-14 -4 -24 -13 -24 -22 1 -9 -28 -34 -69 -59 -38 -24 -84 -56 -102 -71 -18 -16 -41 -28 -51 -28 -30 0 -89 -24 -130 -52 -36 -24 -72 -36 -128 -42 -13 -2 -34 -10 -47 -19 -13 -10 -32 -17 -43 -17 -25 0 43 47 82 56 15 4 45 22 68 40 22 19 44 31 47 27 4 -3 17 3 30 14 24 23 90 53 114 53 8 0 27 8 41 18 15 10 46 24 70 32 46 14 60 27 46 40 -10 9 -86 -8 -120 -27 -37 -21 -115 -45 -129 -39 -14 5 -143 -44 -178 -69 -12 -8 -29 -15 -39 -15 -33 0 -89 -41 -87 -64 1 -11 -2 -29 -6 -39 -7 -16 -9 -17 -25 -2 -22 20 -31 8 -19 -22 9 -26 19 -29 37 -11 9 9 12 7 12 -8 0 -12 -6 -21 -12 -22 -7 -1 -29 -3 -48 -5 -19 -2 -43 -7 -52 -10 -43 -16 -51 -16 -63 -1 -14 20 -39 9 -31 -13 4 -10 1 -13 -14 -8 -13 4 -24 -1 -36 -20 -9 -14 -25 -25 -36 -25 -11 0 -34 -11 -52 -25 -20 -15 -43 -24 -61 -22 -21 1 -30 -3 -31 -13 -1 -8 -2 -19 -3 -24 0 -5 -8 -3 -16 4 -19 15 -37 3 -30 -20 3 -10 1 -21 -5 -25 -6 -3 -8 -11 -5 -16 6 -9 -10 -19 -39 -23 -8 -1 -24 -10 -35 -20 -11 -10 -37 -19 -58 -20 -21 -1 -37 -7 -36 -13 1 -6 -7 -13 -17 -16 -11 -3 -20 -1 -20 4 0 4 -9 13 -21 19 -16 9 -28 7 -62 -14 -44 -26 -117 -99 -117 -117 0 -15 -52 -55 -67 -51 -7 1 -19 -11 -28 -28 -15 -29 -25 -34 -53 -31 -7 1 -15 -5 -18 -14 -3 -8 -15 -15 -25 -15 -11 0 -22 -7 -25 -15 -7 -18 -37 -28 -89 -30 -48 -1 -68 -12 -61 -31 3 -8 1 -14 -3 -14 -16 0 -21 31 -10 53 6 12 27 39 47 59 26 28 33 41 25 49 -12 12 -53 -4 -53 -21 0 -6 -6 -10 -14 -10 -18 0 -69 -86 -60 -101 3 -6 13 -8 21 -4 12 4 13 2 5 -8 -9 -10 -8 -17 1 -26 9 -10 9 -11 -4 -6 -22 8 -34 -12 -19 -30 10 -13 8 -15 -16 -16 -54 -2 -59 -4 -59 -19 0 -18 -79 -81 -97 -78 -8 2 -12 -4 -10 -15 2 -10 -6 -21 -20 -26 -13 -5 -30 -16 -37 -25 -8 -9 -21 -14 -32 -11 -25 8 -34 -13 -14 -35 22 -24 11 -44 -15 -28 -24 15 -53 -7 -48 -37 3 -14 -4 -27 -21 -40 l-26 -20 18 29 c42 64 -24 51 -92 -18 -27 -28 -38 -33 -48 -24 -10 8 -19 6 -37 -11 -12 -12 -23 -27 -24 -34 -1 -6 -4 -27 -7 -45 -3 -23 0 -34 10 -38 8 -4 12 -10 9 -15 -9 -15 -21 -10 -27 11 -3 11 -10 20 -16 20 -18 0 -25 -29 -11 -45 10 -12 9 -15 -3 -15 -9 0 -21 -9 -27 -20 -15 -28 -34 -25 -26 4 3 14 2 27 -2 30 -13 8 -84 -55 -78 -69 3 -8 -7 -18 -26 -24 -25 -9 -33 -8 -42 5 -11 14 -13 14 -25 1 -10 -12 -10 -19 0 -35 10 -16 10 -23 0 -36 -7 -8 -10 -20 -6 -26 4 -6 1 -18 -6 -26 -6 -8 -9 -17 -6 -21 11 -10 -14 -33 -34 -33 -16 0 -18 5 -13 25 12 46 10 60 -8 60 -10 0 -18 -4 -19 -10 -1 -5 -8 -27 -16 -47 -11 -28 -12 -41 -3 -57 6 -12 15 -19 20 -16 17 11 17 -10 -1 -27 -15 -14 -18 -14 -23 -2 -3 8 -10 14 -16 14 -19 0 -23 -30 -6 -49 16 -18 12 -29 -14 -37 -40 -12 -53 -21 -65 -45 -8 -15 -15 -36 -16 -46 0 -14 -2 -13 -9 5 -11 25 -46 30 -75 9 -21 -16 -13 -37 15 -37 10 0 21 -7 24 -16 5 -14 4 -15 -9 -4 -11 9 -19 10 -27 2 -14 -14 0 -35 19 -28 8 3 11 1 8 -4 -3 -6 -17 -10 -31 -10 -18 0 -27 -8 -35 -27 -6 -16 -24 -42 -41 -60 -20 -21 -28 -37 -24 -48 4 -12 10 -14 19 -8 21 17 49 24 41 11 -4 -6 2 -18 12 -26 16 -12 16 -14 2 -9 -11 4 -21 0 -27 -11 -9 -15 -12 -15 -34 6 -24 22 -27 23 -49 8 -41 -27 -76 -109 -57 -133 9 -11 8 -17 -7 -28 -10 -8 -24 -15 -30 -15 -11 0 -54 -54 -54 -67 0 -5 -9 -14 -20 -21 -12 -7 -20 -23 -20 -38 0 -15 -8 -33 -17 -40 -16 -11 -16 -14 -3 -28 13 -13 21 -12 62 9 l47 23 -16 -27 c-9 -14 -23 -34 -31 -43 -8 -10 -11 -25 -7 -39 5 -14 4 -19 -4 -15 -6 4 -19 2 -30 -3 -15 -8 -18 -7 -17 6 2 23 -23 28 -31 6 -3 -10 -13 -26 -22 -36 -14 -17 -14 -20 1 -31 15 -11 14 -15 -14 -37 -47 -37 -103 -93 -104 -104 -1 -5 -2 -15 -3 -22 0 -7 -7 -10 -15 -7 -20 8 -33 -21 -40 -85 -2 -29 25 -22 38 9 7 18 15 29 18 24 8 -16 1 -75 -10 -86 -7 -7 -12 -17 -12 -23 0 -22 -59 -100 -76 -100 -9 0 -22 -8 -28 -18 -9 -15 -7 -21 9 -33 12 -9 20 -28 21 -47 2 -37 -24 -87 -42 -80 -17 6 -28 -15 -15 -31 6 -7 10 -33 10 -57 -1 -24 1 -54 5 -67 4 -19 2 -22 -15 -17 -23 8 -37 -19 -20 -39 9 -11 7 -15 -7 -18 -26 -7 -36 -59 -14 -75 14 -12 14 -13 -1 -13 -25 0 -34 -30 -13 -45 14 -11 15 -19 5 -63 -9 -43 -8 -55 6 -75 9 -14 23 -28 31 -31 21 -8 17 -28 -5 -21 -11 3 -22 1 -25 -4 -4 -6 -13 -8 -21 -5 -16 6 -39 -31 -29 -47 3 -6 12 -8 20 -5 8 3 14 -1 14 -8 0 -7 9 -21 20 -31 15 -14 23 -15 34 -6 11 9 15 8 19 -3 12 -31 -34 -42 -59 -15 -25 28 -34 14 -34 -54 0 -40 -6 -70 -15 -84 -9 -12 -14 -26 -13 -30 1 -4 -4 -27 -12 -50 -8 -28 -17 -40 -26 -36 -25 9 -29 -28 -5 -47 22 -16 23 -21 16 -96 -8 -81 -23 -143 -24 -97 -2 56 -51 31 -51 -26 0 -20 -6 -43 -12 -50 -11 -10 -9 -15 5 -26 13 -10 19 -28 20 -68 1 -31 -2 -55 -7 -54 -16 3 -19 -36 -4 -47 8 -6 18 -35 22 -65 4 -30 10 -60 14 -65 4 -6 7 -31 7 -56 0 -31 4 -44 13 -43 6 2 12 -3 12 -11 0 -7 3 -28 6 -45 5 -25 4 -30 -9 -25 -21 8 -30 -11 -12 -26 8 -7 15 -9 16 -4 1 5 4 -2 8 -16 10 -35 35 -32 42 5 5 28 6 26 11 -15 2 -25 2 -49 -3 -55 -12 -17 5 -90 21 -90 11 0 15 11 15 40 0 22 3 45 7 51 8 12 3 158 -6 172 -3 6 0 15 8 21 11 9 16 -2 25 -61 7 -40 13 -82 14 -93 2 -23 31 -27 33 -5 1 8 2 22 3 30 1 8 12 20 24 26 21 9 25 7 35 -15 25 -58 35 -86 34 -94 -1 -4 3 -10 10 -12 10 -4 12 -33 10 -111 -3 -72 0 -109 8 -119 9 -11 9 -19 2 -28 -14 -17 -11 -105 4 -118 20 -17 34 -1 34 37 l0 35 25 -18 c14 -10 27 -33 31 -53 4 -19 13 -48 21 -63 8 -16 16 -52 18 -80 2 -36 8 -53 19 -55 8 -2 18 -18 21 -35 4 -18 12 -38 17 -44 6 -7 7 -24 4 -37 -5 -19 -1 -28 13 -36 29 -15 76 -104 101 -190 12 -41 30 -82 41 -90 12 -10 20 -30 22 -59 2 -27 9 -48 21 -56 9 -7 17 -16 17 -19 -1 -3 8 -25 18 -49 11 -23 27 -59 35 -79 8 -21 19 -38 25 -38 5 0 11 -10 13 -22 3 -21 70 -75 201 -160 59 -39 76 -84 54 -137 -13 -31 -13 -39 7 -92 18 -52 19 -61 7 -95 -12 -33 -12 -39 3 -49 9 -7 14 -19 11 -28 -4 -10 4 -20 26 -31 27 -13 38 -14 72 -4 38 11 41 11 63 -16 13 -15 24 -37 24 -48 0 -12 7 -28 15 -37 8 -9 23 -27 33 -40 16 -20 22 -22 40 -12 26 14 84 -10 101 -43 28 -52 40 -69 52 -76 7 -5 14 -34 17 -65 3 -40 9 -58 21 -62 9 -3 24 -13 33 -21 16 -13 19 -12 27 9 8 21 10 22 16 6 4 -9 2 -24 -5 -32 -10 -12 -10 -18 0 -30 7 -9 19 -14 26 -11 7 3 24 -8 38 -25 24 -28 35 -49 65 -122 9 -22 16 -27 38 -25 24 3 29 -2 39 -32 9 -27 19 -36 45 -43 19 -4 46 -14 61 -20 30 -14 98 -101 129 -164 12 -24 27 -43 34 -43 7 0 19 -7 26 -16 19 -23 60 -37 73 -24 19 19 29 10 23 -25 -6 -37 7 -55 26 -36 6 6 20 11 30 11 10 0 21 8 24 19 3 12 17 21 41 25 64 10 90 7 119 -16 32 -26 54 -40 104 -67 19 -11 63 -38 97 -61 35 -22 66 -38 71 -35 5 3 21 1 36 -5 23 -9 25 -13 15 -26 -9 -10 -10 -18 -2 -26 14 -14 35 0 28 18 -4 11 -2 12 14 4 20 -10 36 2 26 19 -3 5 2 8 12 7 10 0 16 6 16 16 -2 16 1 16 27 3 17 -9 26 -21 23 -29 -8 -20 14 -30 32 -15 12 10 20 8 42 -10 15 -12 39 -27 55 -34 15 -6 27 -15 27 -19 0 -9 -26 -3 -74 17 -28 12 -42 13 -49 6 -15 -15 23 -53 58 -56 15 -2 32 -11 39 -21 16 -21 39 -9 31 17 -5 14 -3 17 10 13 11 -5 18 0 21 13 7 26 59 25 99 -1 23 -15 32 -16 48 -7 15 10 22 9 35 -2 42 -38 80 -15 42 23 -14 14 -18 26 -13 31 11 11 45 1 38 -11 -3 -5 -1 -11 4 -15 6 -3 8 -12 5 -19 -3 -8 -1 -17 5 -20 6 -4 8 -13 5 -20 -7 -18 15 -31 28 -18 8 8 7 16 -2 27 -17 20 -1 20 70 -1 50 -15 55 -15 66 1 16 22 60 16 56 -7 -4 -24 19 -34 33 -14 10 13 18 14 39 6 31 -11 32 -18 9 -36 -14 -10 -15 -15 -6 -25 10 -10 15 -9 28 1 25 21 99 18 124 -4 27 -24 27 -40 1 -26 -11 6 -20 7 -20 3 0 -4 -5 -1 -10 8 -12 20 -65 22 -80 4 -17 -20 -4 -35 30 -35 27 0 42 -16 44 -50 1 -21 55 -24 91 -6 19 10 33 12 39 6 6 -6 24 -10 42 -10 21 0 36 -7 46 -22 17 -25 42 -16 33 13 -5 14 -2 17 9 13 8 -3 13 -11 10 -18 -7 -18 20 -38 40 -30 9 3 21 15 27 25 12 24 27 25 25 2 -1 -13 5 -17 21 -16 16 2 21 -2 16 -12 -3 -11 5 -19 26 -26 17 -6 31 -16 31 -23 0 -7 14 -22 30 -34 17 -13 30 -28 30 -35 0 -7 -5 -4 -11 6 -5 9 -17 17 -25 17 -8 0 -28 7 -44 15 -15 8 -52 18 -82 21 -29 3 -68 13 -87 20 -38 16 -77 18 -85 5 -9 -15 21 -32 76 -45 42 -9 53 -16 53 -31 0 -27 35 -33 41 -7 10 35 68 11 69 -28 0 -8 9 -16 20 -17 95 -7 134 -14 161 -27 28 -15 34 -15 60 -1 28 15 30 14 54 -12 24 -27 28 -28 85 -22 43 4 65 2 76 -8 22 -19 28 -17 40 14 l10 28 18 -24 18 -24 32 22 c26 19 31 20 31 6 0 -8 7 -18 16 -22 19 -7 66 36 59 55 -4 12 -3 12 9 3 8 -7 12 -19 9 -27 -3 -7 2 -16 10 -20 21 -8 110 45 103 61 -5 15 14 25 50 25 13 0 44 5 69 12 61 16 77 1 44 -41 -13 -16 -29 -30 -36 -30 -6 -1 -19 -15 -27 -33 -22 -42 -8 -55 36 -33 18 9 59 19 92 21 32 2 68 10 81 18 37 25 98 38 125 28 l25 -9 -32 -17 c-18 -9 -45 -16 -60 -16 -15 0 -44 -10 -63 -21 -21 -13 -82 -29 -160 -43 -110 -19 -125 -24 -126 -41 -1 -11 -5 -28 -9 -37 -5 -13 0 -20 21 -28 37 -14 79 -9 79 10 0 18 31 43 43 36 5 -3 25 4 45 14 20 11 46 20 58 20 12 0 34 11 51 25 24 20 40 25 88 25 42 0 69 6 94 21 19 11 49 21 66 21 17 1 33 5 36 10 3 5 12 4 20 -3 14 -12 29 -9 113 18 9 3 3 -4 -14 -16 -16 -11 -45 -21 -64 -21 -19 0 -54 -12 -78 -26 -25 -14 -51 -23 -59 -20 -8 3 -23 -3 -34 -14 -13 -13 -43 -23 -87 -29 -85 -12 -196 -44 -200 -58 -7 -21 17 -23 89 -7 136 30 148 32 154 22 3 -5 18 -7 32 -3 15 3 41 8 57 11 17 2 59 13 95 24 36 11 81 22 100 25 39 6 63 30 55 56 -9 26 12 33 25 9 16 -29 34 -20 36 18 2 38 -8 47 -36 32 -11 -6 -20 -7 -20 -3 1 19 19 34 65 54 28 12 57 27 65 34 19 15 64 28 110 30 19 1 47 5 61 9 20 6 28 3 33 -9 4 -11 12 -14 26 -10 13 4 31 -1 50 -15 16 -12 34 -18 40 -15 15 9 12 35 -5 41 -8 4 -15 11 -15 16 0 6 7 5 15 -2 21 -18 44 2 27 23 -9 10 -9 16 0 25 15 15 33 15 58 0 26 -17 55 1 55 33 0 14 9 28 22 34 11 6 27 16 36 23 9 8 31 10 57 7 29 -4 48 -1 59 9 25 21 110 58 121 51 6 -3 20 1 32 9 15 11 25 12 34 5 8 -7 14 -7 19 1 3 5 11 10 17 10 7 0 6 -5 -2 -15 -21 -25 -2 -36 33 -18 18 9 37 17 43 17 6 1 18 8 27 17 8 9 35 19 59 23 48 8 124 41 136 60 4 7 24 22 45 35 20 12 37 26 37 30 0 11 94 61 113 61 9 0 20 6 24 14 4 7 18 18 31 25 l22 12 -21 -41 c-29 -55 -15 -69 37 -40 21 12 59 41 84 64 45 42 133 111 195 153 28 19 34 20 39 7 8 -22 24 -9 95 73 34 40 85 90 112 112 28 22 64 58 80 81 16 22 34 40 39 40 15 0 -7 -40 -34 -62 -12 -9 -17 -17 -13 -18 5 0 0 -13 -10 -30 -13 -23 -14 -33 -6 -41 17 -17 31 -3 98 101 40 63 62 87 69 80 18 -18 26 -11 51 44 28 62 72 119 86 111 5 -3 5 -14 0 -23 -4 -9 -16 -34 -27 -55 l-18 -39 24 -19 c31 -23 33 -23 54 0 20 22 12 46 -11 36 -12 -4 -13 -3 -5 8 7 8 8 17 4 22 -4 4 3 2 15 -6 18 -11 24 -11 38 1 9 7 14 19 11 27 -3 8 1 16 10 20 9 3 20 15 24 27 l9 21 0 -22 c1 -26 17 -38 28 -21 4 7 17 13 28 13 11 0 20 5 20 10 1 22 26 54 39 49 19 -7 30 14 16 31 -9 11 -6 21 14 48 14 19 26 39 26 44 0 6 6 13 14 16 8 3 17 19 21 35 3 17 15 38 25 47 10 9 22 30 25 46 11 47 131 188 161 189 11 0 74 73 74 87 0 4 33 40 73 79 113 112 247 262 247 277 0 11 80 124 104 146 14 14 26 30 26 38 0 7 24 46 53 86 88 118 101 154 73 193 -13 16 -13 21 0 35 8 9 17 39 21 67 3 28 10 49 15 46 17 -11 40 18 33 43 -4 16 -1 23 9 23 18 0 61 58 51 68 -4 4 -16 7 -28 7 -11 0 -22 6 -24 13 -3 6 2 12 10 12 7 0 22 9 31 19 17 18 17 22 2 43 -20 28 -21 45 -2 29 10 -9 16 -8 26 4 6 8 22 13 33 12 14 -1 22 4 22 13 0 8 -7 14 -16 14 -11 -1 -14 5 -11 22 3 15 -1 26 -11 30 -9 3 -13 12 -10 20 4 11 8 12 20 3 20 -17 35 1 40 47 2 20 11 51 21 68 9 17 17 36 17 41 2 20 40 72 51 68 6 -2 16 3 23 11 9 11 8 21 -8 46 -12 21 -17 39 -11 49 22 46 31 68 29 77 -2 9 5 31 22 69 7 16 7 15 3 -6 -3 -16 -1 -30 7 -35 16 -10 59 40 59 70 0 12 5 27 12 34 8 8 8 15 0 25 -19 22 -4 114 19 120 23 6 25 35 4 43 -17 7 -19 81 -5 174 6 43 5 57 -6 66 -20 16 -17 41 6 61 23 20 26 39 6 50 -8 4 -15 17 -18 28 -5 28 -31 25 -39 -5 l-7 -25 -2 25 c-1 14 -3 36 -3 50 -1 15 -8 25 -17 25 -8 0 -17 -11 -21 -25 -7 -24 -7 -24 -8 6 -1 16 4 35 10 41 15 15 1 36 -18 29 -10 -4 -13 0 -11 12 2 9 12 17 23 17 17 0 20 8 23 50 4 68 -10 157 -26 163 -6 2 -16 -7 -22 -20 -8 -20 -9 -19 -6 12 1 19 8 45 14 57 8 15 9 24 2 28 -8 5 -7 11 1 21 16 19 3 48 -18 40 -9 -4 -24 1 -34 10 -10 9 -23 13 -28 9 -13 -7 -15 -48 -3 -59 15 -16 14 -225 -2 -274 -5 -16 -3 -24 9 -28 10 -4 13 -13 10 -24 -3 -10 -2 -21 3 -24 10 -6 7 -112 -3 -138 -4 -10 -12 -18 -18 -18 -6 0 -18 -7 -28 -16 -16 -15 -17 -12 -16 53 1 46 7 72 17 81 13 11 13 14 -2 26 -19 14 -24 61 -8 71 18 11 10 45 -12 56 -21 9 -21 9 4 4 35 -7 44 10 16 29 -23 16 -18 31 10 31 11 0 17 8 17 25 0 16 -6 25 -15 25 -25 0 -34 25 -14 40 14 10 18 25 16 66 -3 63 -17 83 -38 55 -8 -11 -14 -30 -14 -43 0 -22 -1 -22 -18 -5 -15 14 -16 22 -7 45 8 23 7 31 -5 40 -9 7 -14 20 -12 30 2 10 -1 24 -7 31 -8 9 -8 28 -2 62 8 41 7 51 -7 62 -9 7 -16 18 -14 24 2 6 -3 18 -11 27 -10 13 -15 55 -8 80 1 2 10 -4 21 -14 11 -10 17 -21 14 -26 -3 -5 6 -25 20 -46 16 -23 22 -41 16 -48 -25 -30 13 -126 40 -99 21 22 22 62 2 82 -17 17 -18 21 -6 26 10 4 12 11 7 18 -4 7 -13 27 -19 44 -9 27 -8 31 5 30 11 -1 15 6 13 24 -4 34 -18 46 -36 30 -13 -10 -17 -9 -22 6 -4 11 -9 22 -11 26 -2 4 3 5 11 2 20 -8 33 23 17 39 -10 9 -16 7 -28 -8 -15 -20 -15 -20 -8 3 4 15 0 30 -14 48 -12 15 -21 33 -21 40 0 7 -12 19 -27 26 -17 8 -28 21 -28 34 0 11 -6 28 -13 37 -8 9 -11 21 -8 26 4 5 -3 16 -15 25 -12 8 -19 18 -16 23 3 5 2 15 -3 23 -5 8 -4 22 1 33 8 13 6 25 -5 42 -9 14 -16 30 -16 37 0 7 -7 26 -15 42 -14 26 -14 30 2 41 15 11 15 14 -3 41 -10 16 -28 47 -39 68 -11 22 -37 58 -57 80 -43 46 -49 64 -14 41 47 -31 45 15 -4 88 -33 51 -43 80 -44 131 -1 23 -6 41 -14 44 -9 3 -10 7 -2 17 13 16 -19 80 -41 80 -13 0 -14 -6 -5 -61 1 -7 7 -18 12 -25 8 -10 7 -21 -2 -39 -14 -25 -14 -25 -14 11 0 19 -6 44 -14 54 -15 21 -7 66 17 94 23 27 28 51 12 57 -8 4 -12 10 -9 15 2 5 -5 23 -18 40 -22 30 -25 31 -74 25 -51 -6 -52 -5 -65 27 -8 17 -14 43 -14 57 0 19 -5 25 -22 24 -19 0 -22 4 -18 25 2 13 -1 31 -7 38 -9 11 -14 11 -29 -3 -16 -14 -18 -14 -29 5 -6 12 -17 21 -24 21 -7 0 -18 12 -25 28 -8 15 -17 35 -22 44 -5 10 -9 24 -9 33 0 16 -34 38 -44 27 -4 -3 0 7 8 23 23 43 19 85 -10 120 -24 29 -25 29 -39 11 -14 -19 -15 -19 -21 0 -4 10 -9 22 -11 26 -2 4 2 5 10 2 18 -7 33 14 19 28 -5 5 -18 11 -28 12 -29 4 -64 63 -64 107 0 59 -15 87 -47 91 -22 2 -29 9 -31 30 -4 30 -48 68 -79 68 -20 0 -65 67 -77 115 -4 17 -15 41 -24 55 -9 14 -15 34 -14 46 4 30 -101 102 -123 84 -13 -10 -15 -9 -15 12 0 13 5 29 12 36 9 9 9 15 0 24 -9 9 -15 9 -24 0 -7 -7 -20 -12 -29 -12 -9 0 -30 -7 -45 -15 -16 -8 -46 -15 -66 -15 -31 0 -47 9 -100 58 -104 95 -216 192 -221 192 -3 0 -18 5 -32 10 -23 9 -25 13 -15 26 9 10 10 18 2 26 -14 14 -35 0 -27 -20 4 -12 -1 -10 -17 6 -20 18 -29 20 -56 13 -20 -6 -34 -6 -38 0 -3 5 -15 7 -26 3 -15 -4 -31 4 -62 35 -46 46 -102 61 -100 29 1 -14 -11 -11 -69 20 -80 43 -104 71 -40 49 106 -38 123 -41 123 -16 0 13 -93 70 -106 65 -6 -3 -11 2 -10 11 0 8 -25 34 -56 56 -47 33 -60 39 -70 28 -11 -10 -10 -15 5 -25 9 -7 17 -19 17 -25 0 -7 18 -20 41 -30 l41 -18 -30 -11 c-21 -7 -33 -7 -41 1 -20 20 -35 -7 -23 -42 9 -25 8 -31 -2 -31 -8 0 -13 8 -12 18 1 12 -5 16 -21 15 -23 -3 -31 11 -13 22 13 8 13 42 -1 50 -5 4 -24 1 -40 -5 -28 -12 -32 -11 -64 20 -35 34 -55 33 -55 -1 0 -12 -5 -19 -12 -16 -7 2 -12 11 -10 20 2 10 -10 23 -29 33 -30 15 -33 15 -44 0 -11 -14 -14 -14 -25 -1 -7 8 -17 12 -24 8 -7 -4 -8 -3 -1 5 6 5 19 12 30 14 11 2 20 10 20 18 0 11 -10 14 -43 12 -24 -1 -60 2 -81 8 -30 8 -37 14 -36 32 1 17 8 23 25 23 13 0 25 5 27 12 6 17 -16 26 -32 13 -9 -8 -15 -8 -20 0 -9 15 -28 1 -21 -16 6 -17 5 -17 -31 -3 -28 11 -28 11 -5 20 12 4 22 13 22 19 0 19 -30 23 -55 6 -27 -18 -49 -21 -40 -6 4 6 10 8 15 5 15 -9 21 12 11 38 -5 13 -24 29 -43 37 -18 7 -53 21 -76 32 -24 10 -51 18 -60 16 -22 -3 -103 52 -95 65 3 5 -5 18 -18 29 l-24 19 30 -7 c17 -4 37 -14 45 -24 8 -10 30 -20 48 -24 19 -3 63 -20 99 -37 61 -29 99 -32 91 -8 -4 12 -38 32 -85 49 -24 9 -32 18 -30 34 1 15 -4 21 -18 21 -11 0 -19 -6 -17 -12 3 -19 -14 -16 -58 12 -23 14 -54 28 -70 31 -16 4 -31 13 -34 21 -4 8 -13 13 -21 9 -8 -3 -14 -2 -12 2 3 12 -36 49 -60 56 -15 5 -24 2 -31 -10 -7 -13 -13 -14 -31 -5 -12 7 -19 16 -16 21 9 15 -55 42 -104 44 -35 1 -48 6 -54 20 -7 18 -8 18 -30 -2 -21 -20 -50 -17 -48 4 3 21 -50 14 -74 -10 -13 -13 -27 -21 -30 -16 -2 4 2 13 10 20 8 7 15 18 15 26 0 26 -22 25 -61 -1 -37 -24 -40 -25 -35 -7 12 37 -2 36 -123 -4 -11 -3 -11 -7 -1 -19 7 -9 15 -13 18 -10 3 2 10 -3 17 -12 14 -19 39 -8 31 13 -3 8 1 14 9 14 8 0 12 -6 9 -13 -6 -17 21 -41 36 -32 5 3 10 13 10 22 0 23 12 8 26 -33 l12 -36 -26 7 c-33 9 -70 9 -142 2 -36 -3 -67 0 -89 9 -18 8 -43 14 -54 14 -11 0 -25 7 -32 17 -12 15 -40 20 -180 26 -22 1 -46 -2 -52 -7 -8 -5 -19 -4 -28 4 -12 10 -18 10 -30 0 -11 -10 -25 -10 -66 0 -29 7 -81 10 -120 8 -38 -3 -72 -1 -75 4 -3 5 -11 5 -18 -1 -9 -7 -16 -7 -23 0 -8 8 -13 7 -18 -1 -5 -8 -10 -6 -19 5 -10 14 -24 15 -106 8 -66 -6 -102 -5 -118 3 -19 9 -11 13 65 29 49 10 92 21 96 25 5 4 25 4 45 -1 39 -8 76 4 69 24 -4 14 -61 22 -85 11 -10 -3 -42 -7 -72 -9 -30 -1 -80 -5 -110 -9 -30 -4 -73 -8 -95 -10 -87 -8 -184 -47 -192 -77 -5 -18 -6 -18 -18 -2 -11 14 -18 15 -51 6 -22 -6 -68 -11 -104 -12 -36 0 -91 -7 -122 -15 -61 -14 -71 -9 -39 21 23 22 35 59 22 67 -5 4 -29 -7 -52 -22 -23 -16 -50 -27 -60 -25 -9 3 -28 -3 -42 -12 -14 -9 -50 -18 -79 -20 -29 -2 -42 -1 -28 2 14 2 35 14 47 25 28 26 110 64 193 90 91 28 104 36 89 54 -9 11 -9 17 1 29 7 9 10 18 7 22 -9 9 -58 11 -87 3z m534 -205 c3 -9 0 -15 -8 -15 -8 0 -16 7 -20 15 -3 9 0 15 8 15 8 0 16 -7 20 -15z m-56 -17 c8 -10 -1 -13 -41 -12 -84 3 -96 5 -62 14 48 12 92 11 103 -2z m1638 -106 c6 -4 13 -16 17 -27 6 -18 5 -18 -9 2 -13 18 -20 20 -41 12 -23 -8 -24 -8 -13 6 14 16 29 19 46 7z m418 -237 c11 -8 30 -15 43 -15 16 0 21 -4 17 -15 -5 -12 -10 -13 -20 -4 -7 6 -17 8 -22 5 -5 -3 -20 6 -32 19 -26 27 -17 33 14 10z m-3904 -125 c0 -5 -6 -9 -12 -7 -7 1 -12 -4 -10 -10 1 -7 -2 -13 -8 -13 -12 0 -12 3 -4 24 7 17 34 22 34 6z m-69 -40 c-22 -19 -41 -26 -41 -15 0 5 51 34 60 34 3 0 -6 -9 -19 -19z m-51 -66 c0 -8 -4 -13 -9 -9 -6 3 -13 -1 -18 -8 -4 -7 -17 -17 -28 -20 -13 -5 -8 4 15 23 40 35 40 35 40 14z m-357 -209 c-12 -8 -36 -32 -53 -53 -23 -28 -30 -32 -27 -16 3 24 65 83 87 84 10 0 7 -5 -7 -15z m5493 -86 c19 -22 19 -22 -3 -10 -13 6 -23 16 -23 21 0 15 5 12 26 -11z m-5607 -7 c-6 -10 -21 -19 -32 -19 -12 -1 -29 -12 -38 -25 -10 -12 -21 -19 -26 -14 -10 10 46 56 69 56 9 0 20 5 23 10 3 6 8 10 11 10 2 0 -1 -8 -7 -18z m-511 -368 c-4 -3 -18 -7 -31 -8 -25 -3 -25 -3 -9 20 15 19 19 21 31 9 8 -8 12 -17 9 -21z m-298 -303 c-12 -23 -30 -36 -30 -22 0 5 -3 16 -6 25 -5 12 0 16 20 16 23 0 25 -2 16 -19z m7568 -345 c2 -10 -1 -22 -7 -27 -6 -5 -9 -6 -7 -3 3 3 0 17 -5 31 -7 19 -6 24 3 21 7 -3 15 -13 16 -22z m-3765 -687 c43 -19 47 -46 47 -284 l0 -225 -45 0 -45 0 0 217 c0 239 -3 253 -62 253 -23 0 -28 4 -28 25 0 24 3 25 55 25 30 0 65 -5 78 -11z m-2633 -135 c31 -13 44 -14 53 -5 6 6 26 11 44 11 l33 0 0 -151 c0 -169 -8 -196 -66 -224 -66 -31 -205 -14 -256 31 -14 13 -15 20 -5 35 16 26 49 24 93 -6 51 -34 86 -33 119 6 18 23 25 41 23 63 -3 26 -8 31 -33 34 -75 8 -168 33 -195 52 -54 38 -48 128 10 157 35 18 132 16 180 -3z m933 2 c47 -19 69 -49 74 -100 7 -59 -19 -85 -113 -116 -103 -34 -131 -70 -82 -104 32 -22 60 -20 102 9 47 32 64 32 76 -1 15 -38 13 -40 -30 -58 -47 -19 -161 -21 -193 -5 -51 26 -67 51 -67 101 0 62 19 81 107 108 67 20 113 52 113 76 0 21 -51 54 -84 54 -17 -1 -42 -7 -56 -15 -37 -21 -73 -18 -88 6 -16 25 -16 25 34 43 50 19 165 20 207 2z m2087 -2 c31 -13 44 -14 53 -5 6 6 26 11 44 11 l33 0 0 -151 c0 -169 -8 -196 -66 -224 -66 -31 -205 -14 -256 31 -14 13 -15 20 -5 35 16 26 49 24 93 -6 51 -34 86 -33 119 6 18 23 25 41 23 63 -3 26 -8 31 -33 34 -75 8 -168 33 -195 52 -54 38 -48 128 10 157 35 18 132 16 180 -3z m680 0 c31 -13 44 -14 53 -5 6 6 26 11 44 11 l33 0 0 -151 c0 -169 -8 -196 -66 -224 -66 -31 -205 -14 -256 31 -14 13 -15 20 -5 35 16 26 49 24 93 -6 51 -34 86 -33 119 6 18 23 25 41 23 63 -3 26 -8 31 -33 34 -75 8 -168 33 -195 52 -54 38 -48 128 10 157 35 18 132 16 180 -3z m1800 0 c31 -13 44 -14 53 -5 6 6 26 11 44 11 l33 0 0 -151 c0 -169 -8 -196 -66 -224 -66 -31 -205 -14 -256 31 -14 13 -15 20 -5 35 16 26 49 24 93 -6 51 -34 86 -33 119 6 18 23 25 41 23 63 -3 26 -8 31 -33 34 -75 8 -168 33 -195 52 -54 38 -48 128 10 157 35 18 132 16 180 -3z m-6658 -116 c3 -119 4 -123 26 -126 15 -2 33 7 55 30 17 19 72 75 121 126 l89 93 59 -3 59 -3 -130 -137 -131 -136 126 -136 125 -136 -64 0 -63 0 -113 126 c-150 166 -155 165 -159 -3 l-3 -123 -49 0 -50 0 0 275 0 275 50 0 49 0 3 -122z m758 99 c60 -32 90 -89 90 -172 0 -83 -30 -140 -90 -172 -77 -41 -224 -28 -284 25 -53 47 -71 163 -37 237 36 78 84 103 202 104 61 1 84 -4 119 -22z m750 -257 l0 -280 -45 0 -45 0 0 280 0 280 45 0 45 0 0 -280z m230 90 l0 -190 -45 0 -45 0 0 190 0 190 45 0 45 0 0 -190z m630 0 l0 -190 -45 0 -45 0 0 190 0 190 45 0 45 0 0 -190z m492 88 l3 -103 100 -5 c161 -8 225 -56 225 -167 0 -73 -21 -114 -73 -144 -39 -22 -55 -24 -199 -27 l-158 -4 0 276 0 276 50 0 49 0 3 -102z m746 78 c68 -36 17 -72 -59 -42 -66 26 -114 21 -155 -17 -29 -27 -37 -41 -38 -73 l-1 -39 148 -3 147 -3 0 -37 c0 -52 -30 -103 -76 -129 -77 -44 -222 -26 -276 34 -46 50 -60 142 -34 216 32 88 92 119 221 114 61 -2 101 -9 123 -21z m922 -256 l0 -280 -45 0 -45 0 0 280 0 280 45 0 45 0 0 -280z m680 148 l0 -131 40 -39 c52 -48 88 -51 124 -7 25 30 26 35 26 170 l0 139 45 0 45 0 0 -150 c0 -168 -8 -198 -60 -225 -41 -21 -132 -19 -181 4 -34 17 -41 17 -46 5 -3 -9 -19 -14 -44 -14 l-39 0 0 190 0 190 45 0 45 0 0 -132z m772 10 c3 -119 4 -123 26 -126 15 -2 33 7 55 30 17 19 72 75 121 126 l89 93 59 -3 59 -3 -130 -137 -131 -136 126 -136 125 -136 -64 0 -63 0 -113 126 c-150 166 -155 165 -159 -3 l-3 -123 -49 0 -50 0 0 275 0 275 50 0 49 0 3 -122z m1028 33 c0 -50 4 -92 9 -96 8 -5 34 22 151 157 23 27 30 29 79 26 l55 -3 -74 -85 c-41 -47 -81 -93 -89 -103 -14 -16 -8 -25 69 -102 l85 -85 -54 0 c-53 0 -55 1 -136 75 -45 41 -85 72 -89 68 -3 -3 -6 -78 -6 -165 l0 -158 -45 0 -45 0 0 280 0 280 45 0 45 0 0 -89z m470 -101 l0 -190 -45 0 -45 0 0 190 0 190 45 0 45 0 0 -190z m-5726 -312 c18 -29 -4 -53 -53 -56 -61 -5 -93 32 -59 66 19 19 98 11 112 -10z m630 0 c18 -29 -4 -53 -53 -56 -61 -5 -93 32 -59 66 19 19 98 11 112 -10z m1470 0 c18 -29 -4 -53 -53 -56 -61 -5 -93 32 -59 66 19 19 98 11 112 -10z m3640 0 c18 -29 -4 -53 -53 -56 -61 -5 -93 32 -59 66 19 19 98 11 112 -10z m-7376 -220 c9 -8 12 -127 12 -534 0 -507 -1 -524 -19 -534 -11 -5 -71 -10 -134 -10 -96 0 -116 3 -121 16 -8 20 -8 1037 0 1057 4 11 30 14 127 14 67 1 128 -4 135 -9z m412 0 c15 -9 24 -9 43 1 21 11 28 11 51 -4 l27 -18 -2 -511 c-1 -399 -4 -516 -14 -529 -11 -16 -27 -17 -124 -14 -89 3 -115 8 -131 22 -19 18 -20 33 -20 526 l0 508 28 14 c34 18 116 21 142 5z m641 -9 c5 -11 8 -218 7 -541 l-3 -523 -125 -3 c-69 -1 -132 2 -140 8 -13 8 -15 80 -18 526 -2 478 -1 518 15 536 15 17 30 19 135 17 103 -2 120 -4 129 -20z m519 1 c6 -12 10 -201 10 -534 0 -499 -1 -516 -19 -526 -11 -5 -69 -10 -130 -10 l-110 0 -16 30 c-13 25 -15 100 -15 525 0 298 4 503 10 514 8 16 25 18 134 19 114 2 126 0 136 -18z m532 3 c17 -15 18 -45 18 -527 l0 -511 -22 -15 c-15 -9 -60 -15 -134 -17 -149 -5 -142 -17 -131 232 4 105 5 330 2 502 -4 217 -3 319 5 333 10 18 20 20 127 20 94 0 120 -3 135 -17z m531 -1 c16 -14 17 -52 17 -533 0 -495 -1 -519 -19 -528 -22 -12 -250 -11 -257 1 -3 4 -5 243 -4 530 0 371 4 526 12 535 17 21 227 17 251 -5z m517 -3 c13 -23 12 -1010 0 -1044 -7 -19 -17 -21 -122 -23 -79 -1 -120 2 -131 11 -15 11 -17 59 -17 526 -1 471 0 515 16 532 15 17 32 19 130 19 104 0 114 -2 124 -21z m539 2 c16 -29 15 -1024 0 -1049 -11 -17 -25 -19 -128 -19 -64 -1 -124 3 -133 8 -17 9 -18 44 -18 525 l0 516 23 19 c19 15 39 18 134 19 100 0 113 -2 122 -19z m539 -526 l-3 -540 -134 -3 c-90 -2 -138 1 -147 9 -12 9 -14 96 -14 505 0 348 3 505 12 532 l11 37 139 0 138 0 -2 -540z m505 527 c16 -14 17 -52 17 -527 0 -428 -2 -514 -14 -524 -8 -7 -66 -15 -133 -18 -118 -6 -119 -6 -129 18 -7 16 -10 200 -10 530 1 408 4 509 14 522 19 22 228 21 255 -1z m392 8 c8 -14 41 -13 65 2 16 10 25 10 47 -4 l28 -17 3 -511 c1 -342 -1 -517 -8 -531 -10 -17 -21 -19 -128 -18 -64 1 -125 6 -134 11 -17 8 -18 43 -18 527 l0 519 23 15 c25 18 112 23 122 7z m665 -520 c3 -289 1 -533 -3 -543 -7 -16 -21 -17 -133 -14 -68 2 -127 7 -131 11 -5 4 -9 238 -10 519 -1 420 1 516 13 534 13 20 20 21 136 20 l123 -2 5 -525z m530 510 c7 -12 9 -199 8 -542 l-3 -523 -124 -3 c-82 -2 -128 1 -137 9 -12 9 -14 100 -14 532 0 454 2 521 15 531 9 6 65 12 130 13 104 2 116 1 125 -17z m542 -500 c2 -283 0 -526 -3 -540 -5 -25 -6 -25 -136 -28 l-130 -3 -6 92 c-9 118 -9 483 0 770 l6 224 133 0 134 0 2 -515z m503 504 l25 -16 0 -514 0 -514 -22 -14 c-31 -19 -236 -15 -249 5 -13 20 -11 1026 1 1050 10 17 22 19 116 19 80 0 111 -4 129 -16z m-8509 -35 c3 -6 -5 -23 -19 -37 l-26 -26 5 25 c10 42 13 49 23 49 5 0 13 -5 17 -11z m9350 -36 c7 -12 10 -31 7 -41 -2 -11 0 -23 6 -26 6 -4 11 -15 11 -24 0 -9 -10 3 -21 28 -12 25 -25 53 -30 62 -12 24 -11 28 3 26 7 -2 18 -13 24 -25z m-9328 -179 l45 -27 -26 -19 c-15 -11 -27 -28 -27 -39 0 -12 -5 -16 -15 -13 -12 5 -10 11 8 36 l22 30 -21 16 c-12 10 -30 22 -40 29 -39 25 10 13 54 -13z m-66 -376 c5 -55 -18 -107 -38 -86 -11 11 -11 21 -2 53 15 52 15 52 17 71 2 31 19 3 23 -38z m25 -385 c-3 -10 -5 -2 -5 17 0 19 2 27 5 18 2 -10 2 -26 0 -35z m1339 -101 c7 -4 10 -63 9 -167 -1 -163 7 -205 39 -205 7 0 20 -7 27 -16 8 -9 32 -25 54 -36 55 -26 95 -50 117 -70 36 -35 68 -15 68 42 0 20 7 45 15 56 8 10 15 36 15 57 0 21 6 48 12 60 7 12 18 38 23 57 l11 35 119 0 c66 0 191 -2 277 -5 185 -6 189 -8 181 -87 l-6 -53 -196 0 c-155 0 -201 -3 -217 -14 -19 -14 -21 -28 -27 -180 -6 -176 -7 -181 -69 -254 -15 -18 -28 -41 -28 -50 0 -10 -5 -23 -11 -29 -5 -5 -12 -34 -15 -63 -2 -29 -8 -58 -13 -64 -5 -6 -12 -31 -16 -56 -4 -25 -15 -78 -26 -119 -26 -102 -19 -109 99 -107 82 1 91 3 142 37 117 76 116 76 155 55 55 -30 47 -53 -42 -126 -119 -95 -128 -98 -340 -102 -177 -3 -182 -2 -205 20 -50 46 -67 22 -33 -49 26 -56 25 -76 -2 -141 -36 -86 -153 -118 -231 -64 -52 36 -75 78 -76 141 0 46 4 58 35 96 40 48 105 75 152 64 63 -16 53 28 -16 68 -24 14 -79 64 -124 111 -45 47 -88 86 -97 86 -9 0 -42 -11 -74 -24 -122 -50 -156 -42 -150 35 3 45 -1 43 139 88 14 5 34 13 45 19 47 24 96 42 116 42 14 0 48 -27 95 -76 85 -90 85 -90 133 24 18 42 46 105 62 140 15 35 28 73 28 85 0 16 -41 61 -140 152 -76 72 -144 142 -151 157 -6 16 -9 48 -5 75 3 26 10 115 15 197 6 106 13 151 22 157 17 11 90 11 105 1z m4717 -17 c20 -8 45 -15 56 -15 11 0 34 -8 53 -17 18 -9 47 -23 63 -32 132 -66 222 -203 269 -407 20 -90 20 -112 0 -199 -21 -91 -73 -198 -127 -262 -51 -61 -171 -145 -239 -167 -23 -7 -87 -96 -88 -121 0 -11 -7 -29 -15 -39 -18 -24 -19 -59 -4 -88 8 -16 8 -31 -1 -59 -17 -51 -67 -78 -143 -77 -53 1 -56 2 -80 39 -23 35 -26 50 -31 181 -7 183 -15 249 -34 271 -13 15 -37 17 -213 17 l-198 0 -33 33 c-30 30 -70 101 -105 185 -7 17 -20 47 -28 65 -39 87 -98 225 -126 297 -27 68 -30 84 -21 105 8 17 20 25 36 25 13 0 29 7 36 15 7 8 23 15 36 15 26 0 52 -32 90 -112 56 -116 95 -183 107 -183 6 0 14 18 18 40 3 22 10 50 17 62 7 12 12 35 12 51 0 16 7 35 15 42 8 7 15 19 15 26 0 43 176 234 216 234 12 0 26 5 29 11 11 16 117 60 133 54 7 -3 23 0 34 6 56 30 184 32 251 4z m-2119 -89 c3 -44 6 -128 6 -186 1 -58 7 -130 14 -160 20 -81 47 -159 58 -166 19 -12 38 20 54 94 18 83 48 146 122 260 26 40 71 110 101 157 63 100 83 107 137 49 19 -19 34 -40 34 -46 0 -12 -77 -157 -94 -178 -7 -8 -36 -59 -64 -112 l-52 -97 0 -200 c0 -149 3 -202 13 -208 6 -4 50 -17 97 -29 62 -16 86 -26 88 -39 2 -9 -6 -49 -18 -89 -12 -39 -24 -76 -25 -83 -2 -6 -16 -17 -32 -25 -27 -13 -28 -17 -29 -83 -1 -64 -4 -75 -40 -130 -21 -33 -46 -72 -54 -87 -44 -79 -85 -145 -99 -162 -24 -28 -97 -56 -146 -56 -55 0 -79 -24 -41 -41 63 -29 85 -132 46 -208 -24 -48 -38 -54 -127 -56 -81 -2 -91 5 -132 78 -28 50 -27 70 9 132 30 53 64 75 112 75 37 0 32 30 -11 66 -26 23 -41 44 -41 59 0 12 -7 28 -15 35 -8 7 -15 29 -15 49 0 20 -7 54 -15 76 -8 22 -14 57 -15 77 0 37 -39 98 -62 98 -6 0 -26 11 -44 25 -18 14 -41 25 -52 25 -21 0 -82 -62 -82 -83 0 -23 -61 -87 -103 -108 -30 -16 -50 -19 -79 -15 -21 4 -48 2 -58 -4 -14 -8 -20 -8 -20 0 0 6 -20 19 -45 30 -25 11 -48 27 -51 37 -3 10 -12 31 -20 46 -7 16 -14 39 -14 52 0 28 -26 119 -46 160 -8 17 -44 61 -79 100 -71 76 -79 102 -44 144 18 22 22 23 44 11 14 -7 25 -17 25 -20 0 -4 25 -27 57 -51 42 -33 62 -58 80 -97 30 -67 47 -64 51 11 2 41 -4 76 -23 129 -15 40 -30 87 -34 103 -4 17 -13 40 -19 52 -7 12 -12 32 -12 44 0 12 -7 30 -16 40 -19 21 -12 37 22 49 17 7 24 17 24 36 0 30 -24 121 -46 172 -8 18 -14 44 -14 57 0 13 -6 39 -14 57 -19 47 -37 128 -31 139 4 5 12 9 19 9 8 0 19 7 26 15 19 23 39 18 46 -12 4 -16 11 -33 16 -40 6 -7 14 -27 18 -45 5 -18 18 -58 30 -88 12 -30 26 -71 32 -90 5 -19 14 -39 19 -45 5 -5 9 -16 9 -25 0 -28 49 -120 63 -120 23 0 36 21 148 239 114 222 121 230 172 189 l29 -23 -45 -110 c-25 -61 -48 -121 -52 -135 -4 -14 -22 -55 -40 -92 -32 -63 -33 -67 -16 -82 10 -9 25 -16 34 -16 25 0 30 -36 10 -67 -10 -15 -23 -41 -29 -58 -7 -16 -20 -49 -29 -72 -24 -58 -11 -73 65 -73 76 0 85 -11 77 -95 -4 -44 -13 -74 -28 -95 -22 -29 -22 -30 -4 -49 9 -11 25 -20 34 -19 9 1 37 -4 63 -11 36 -10 52 -22 72 -52 15 -21 31 -39 36 -39 14 0 30 35 30 69 0 16 5 33 10 36 6 3 10 15 10 25 0 11 7 39 15 63 14 41 13 48 -11 121 -13 42 -29 96 -34 119 -5 23 -20 85 -33 137 -21 83 -25 125 -30 343 -6 283 -11 267 84 265 l56 -1 7 -81z m3437 18 c16 -19 83 -240 109 -359 12 -53 35 -98 84 -165 23 -30 46 -64 51 -74 6 -10 18 -24 28 -30 15 -9 21 -7 33 8 8 11 12 28 9 37 -4 10 3 38 15 63 11 25 20 55 20 68 0 13 7 32 15 42 8 11 15 27 15 37 0 9 25 61 57 115 31 55 69 123 84 153 44 82 56 93 88 77 14 -8 34 -23 44 -33 18 -21 16 -31 -28 -128 -46 -102 -75 -173 -75 -184 0 -6 -6 -22 -14 -34 -19 -29 -34 -106 -42 -209 -3 -45 -12 -105 -20 -132 -19 -66 -18 -131 2 -161 17 -27 15 -65 -6 -125 -25 -67 -51 -135 -64 -165 -50 -112 -54 -183 -8 -142 10 9 28 17 39 17 11 0 26 7 33 15 7 8 18 15 25 15 23 0 48 38 42 67 -3 15 1 70 9 122 7 53 14 117 14 143 0 54 21 82 54 72 11 -3 24 -9 28 -13 6 -5 12 -289 9 -419 -1 -46 -4 -54 -25 -62 -13 -5 -27 -14 -31 -19 -3 -6 -14 -11 -23 -12 -9 0 -49 -17 -89 -37 -183 -94 -285 -142 -301 -142 -10 0 -23 5 -30 12 -9 9 -15 9 -23 1 -9 -9 -5 -26 17 -67 28 -54 28 -56 13 -98 -19 -52 -86 -108 -130 -108 -47 0 -106 39 -124 83 -19 47 -19 77 0 124 19 47 62 73 120 73 55 0 65 14 27 37 -49 30 -82 77 -82 116 0 20 -4 38 -9 42 -6 3 -13 27 -17 53 -3 26 -13 62 -20 81 -8 18 -14 47 -14 63 0 19 -31 87 -85 185 -88 159 -92 174 -56 207 27 25 51 9 98 -62 20 -31 55 -79 76 -106 39 -50 97 -163 97 -189 0 -8 8 -25 18 -37 22 -27 32 -17 52 50 8 25 21 61 31 80 52 106 61 158 35 195 -7 11 -36 63 -64 115 -27 52 -61 115 -75 140 -44 77 -67 132 -67 159 0 15 -7 36 -15 47 -8 10 -15 32 -15 47 0 15 -7 44 -15 64 -8 19 -15 45 -15 58 0 12 -12 58 -26 103 -30 96 -24 122 29 122 18 0 39 5 47 10 21 13 25 13 41 -6z m-7411 -190 c0 -14 -4 -23 -9 -20 -7 5 -8 23 -2 44 4 12 11 -3 11 -24z m100 -96 c0 -26 -17 -14 -22 17 -4 20 -3 23 8 14 8 -6 14 -20 14 -31z m9493 -293 c-14 -10 -15 -16 -5 -27 6 -8 8 -18 4 -22 -4 -4 -7 -11 -8 -14 0 -4 -6 -20 -13 -36 -16 -39 -24 -28 -8 13 10 29 10 35 -4 44 -15 9 -14 13 10 38 14 14 30 25 34 22 5 -3 0 -11 -10 -18z m-18 -147 c4 4 0 -5 -9 -20 -10 -15 -14 -33 -10 -39 5 -9 2 -10 -10 -6 -10 4 -21 7 -26 7 -4 0 -10 9 -13 21 -4 13 -10 18 -18 14 -7 -5 -10 -3 -7 5 2 8 14 14 26 15 12 1 25 5 29 8 3 4 11 2 18 -3 7 -5 15 -6 20 -2z m-115 -281 c0 -2 -14 -16 -32 -33 l-32 -29 25 32 c20 27 39 41 39 30z m-82 -113 c-10 -10 -21 -13 -29 -8 -12 7 0 14 41 23 2 1 -3 -6 -12 -15z m-6054 -229 c11 -8 30 -15 42 -15 13 0 32 -14 48 -34 53 -70 27 -164 -56 -207 -45 -23 -56 -23 -108 -3 -107 43 -107 212 1 254 55 22 50 22 73 5z m2773 -125 c93 -56 106 -190 27 -271 -36 -37 -41 -39 -103 -39 -53 0 -70 4 -98 26 -44 33 -64 65 -73 116 -23 124 139 234 247 168z m-4608 -1289 c9 -16 8 -18 -9 -14 -21 5 -25 15 -13 26 9 10 11 9 22 -12z m5801 -765 c0 -9 -7 -12 -21 -9 -16 4 -17 8 -7 14 19 13 28 11 28 -5z m-3545 -335 c-3 -6 -14 -11 -23 -11 -13 0 -13 2 4 14 21 15 30 14 19 -3z m1239 -140 c5 -8 -33 -27 -102 -49 -30 -10 -32 -9 -27 8 3 10 1 21 -5 25 -5 3 -10 10 -10 16 0 11 137 12 144 0z m-181 -11 c-27 -11 -29 -25 -5 -39 9 -6 15 -11 12 -11 -42 -9 -53 -7 -71 11 -24 24 -45 20 -42 -8 2 -16 -2 -19 -22 -15 -27 5 -24 18 9 42 28 21 54 28 101 28 34 1 36 -1 18 -8z m357 -75 c0 -1 -6 -8 -14 -14 -11 -9 -15 -7 -19 8 -3 14 0 17 14 14 11 -3 19 -7 19 -8z"/>
 <path d="M2481 6814 c-16 -21 -18 -30 -10 -46 14 -25 65 -47 120 -50 l44 -3 0 40 c0 33 -5 43 -34 62 -47 32 -94 30 -120 -3z"/>
 <path d="M5501 6814 c-16 -21 -18 -30 -10 -46 14 -25 65 -47 120 -50 l44 -3 0 40 c0 33 -5 43 -34 62 -47 32 -94 30 -120 -3z"/>
 <path d="M6181 6814 c-16 -21 -18 -30 -10 -46 14 -25 65 -47 120 -50 l44 -3 0 40 c0 33 -5 43 -34 62 -47 32 -94 30 -120 -3z"/>
 <path d="M7981 6814 c-16 -21 -18 -30 -10 -46 14 -25 65 -47 120 -50 l44 -3 0 40 c0 33 -5 43 -34 62 -47 32 -94 30 -120 -3z"/>
 <path d="M2002 6796 c-37 -34 -37 -35 -37 -111 0 -76 0 -77 37 -111 42 -38 80 -44 128 -19 40 21 60 63 60 130 0 67 -20 109 -60 130 -48 25 -86 19 -128 -19z"/>
 <path d="M4305 6608 c-3 -8 -4 -61 -3 -119 l3 -104 78 0 c78 0 79 0 113 37 48 52 48 103 0 155 -33 36 -37 38 -110 41 -59 3 -77 1 -81 -10z"/>
 <path d="M4795 6629 c-9 -14 25 -60 56 -76 43 -22 88 -16 121 17 51 52 38 65 -74 68 -64 2 -99 -1 -103 -9z"/>
 <path d="M6195 4935 c-62 -16 -104 -37 -175 -88 -58 -42 -109 -94 -110 -113 0 -6 -7 -17 -15 -24 -36 -30 -51 -79 -71 -233 -9 -64 13 -165 42 -194 22 -22 29 -23 209 -23 l187 0 44 -36 c41 -34 43 -39 38 -74 -8 -51 10 -60 47 -24 23 22 29 36 29 72 0 43 -17 110 -46 180 -8 18 -14 44 -14 59 0 14 -9 41 -21 59 -16 26 -18 37 -9 54 6 11 15 20 21 20 6 0 26 7 44 16 48 22 69 16 73 -23 2 -17 10 -37 18 -43 8 -7 14 -27 14 -44 0 -18 7 -41 15 -52 8 -10 15 -26 15 -34 0 -8 7 -28 16 -45 9 -16 18 -48 20 -69 2 -22 11 -47 19 -56 23 -25 18 -47 -20 -97 -63 -83 -37 -119 42 -56 84 67 94 77 126 128 51 80 58 94 69 149 13 65 14 134 1 216 -19 122 -128 266 -242 320 -25 12 -54 26 -64 31 -58 31 -224 45 -302 24z"/>
 <path d="M5454 9809 c-10 -17 13 -36 27 -22 12 12 4 33 -11 33 -5 0 -12 -5 -16 -11z"/>
 <path d="M4350 9781 c-30 -8 -33 -35 -5 -39 26 -4 60 21 51 36 -8 13 -10 13 -46 3z"/>
 <path d="M5314 9779 c-10 -17 13 -36 27 -22 12 12 4 33 -11 33 -5 0 -12 -5 -16 -11z"/>
 <path d="M4415 9750 c-4 -7 -3 -16 3 -22 14 -14 45 -2 40 15 -6 16 -34 21 -43 7z"/>
 <path d="M5695 9740 c-4 -7 -3 -16 3 -22 14 -14 47 -6 47 12 0 18 -40 26 -50 10z"/>
 <path d="M4345 9721 c-35 -15 -48 -37 -35 -60 6 -12 17 -21 24 -21 23 0 56 34 58 60 3 27 -14 34 -47 21z"/>
 <path d="M3593 9710 c-26 -11 -30 -28 -9 -36 19 -7 58 14 53 29 -5 15 -18 17 -44 7z"/>
 <path d="M5094 9709 c-10 -17 13 -36 27 -22 12 12 4 33 -11 33 -5 0 -12 -5 -16 -11z"/>
 <path d="M6044 9679 c-10 -17 13 -36 27 -22 12 12 4 33 -11 33 -5 0 -12 -5 -16 -11z"/>
 <path d="M3492 9647 c-7 -7 -13 -24 -14 -38 -3 -20 1 -24 22 -24 21 0 25 4 23 29 -3 37 -16 51 -31 33z"/>
 <path d="M5074 9649 c-10 -17 13 -36 27 -22 12 12 4 33 -11 33 -5 0 -12 -5 -16 -11z"/>
 <path d="M6364 9618 c-10 -15 22 -37 65 -43 20 -4 43 -10 52 -15 25 -13 32 1 12 23 -34 37 -114 59 -129 35z"/>
 <path d="M3413 9593 c-22 -15 -31 -47 -15 -56 14 -9 65 40 59 57 -8 20 -16 19 -44 -1z"/>
 <path d="M3511 9566 c-9 -10 -9 -16 -1 -21 17 -10 37 12 24 25 -8 8 -15 6 -23 -4z"/>
 <path d="M3414 9517 c-33 -29 -25 -47 18 -42 42 5 53 18 39 44 -15 27 -24 26 -57 -2z"/>
 <path d="M3221 9495 c-13 -8 -28 -21 -33 -29 -5 -9 -15 -16 -23 -16 -8 0 -22 -11 -30 -24 -18 -27 -48 -39 -63 -24 -16 16 -36 -1 -22 -17 8 -10 4 -20 -17 -40 -27 -25 -27 -26 -9 -40 17 -13 23 -11 57 16 21 17 47 41 58 54 19 25 63 48 91 49 8 1 15 8 15 16 0 8 6 25 12 36 19 34 5 41 -36 19z"/>
 <path d="M6807 9403 c-15 -14 -6 -34 20 -44 39 -15 56 6 24 32 -25 20 -34 23 -44 12z"/>
 <path d="M6884 9369 c-10 -17 23 -46 38 -31 8 8 8 15 -2 27 -15 18 -26 19 -36 4z"/>
 <path d="M2970 9345 c-22 -26 4 -43 30 -20 20 18 18 35 -4 35 -8 0 -19 -7 -26 -15z"/>
 <path d="M7005 9320 c-7 -12 34 -54 44 -45 2 3 17 -3 33 -13 26 -15 31 -15 41 -2 7 9 19 14 29 12 21 -4 34 16 19 31 -6 6 -28 12 -49 13 -20 0 -53 4 -73 8 -25 5 -39 4 -44 -4z"/>
 <path d="M2895 9300 c-4 -6 -2 -17 4 -24 6 -6 9 -25 8 -41 -3 -43 21 -42 39 1 15 36 15 38 -8 56 -27 20 -34 22 -43 8z"/>
 <path d="M6855 9300 c-10 -17 4 -27 52 -34 41 -6 65 6 47 24 -16 16 -91 23 -99 10z"/>
 <path d="M6955 9260 c-9 -15 4 -31 23 -28 10 1 37 -11 62 -26 49 -32 71 -37 77 -19 5 13 -66 61 -97 66 -11 2 -23 6 -26 10 -11 10 -32 9 -39 -3z"/>
 <path d="M7145 9240 c-4 -7 -3 -16 3 -22 14 -14 45 -2 40 15 -6 16 -34 21 -43 7z"/>
 <path d="M2704 9219 c-10 -17 13 -36 27 -22 12 12 4 33 -11 33 -5 0 -12 -5 -16 -11z"/>
 <path d="M2850 9215 c-10 -11 -10 -19 -2 -27 15 -15 44 -2 40 19 -4 23 -22 27 -38 8z"/>
 <path d="M2673 9180 c-4 -14 -11 -19 -23 -15 -22 7 -40 -15 -43 -52 -2 -33 25 -40 31 -8 6 28 21 45 37 39 15 -6 39 31 30 46 -10 17 -27 11 -32 -10z"/>
 <path d="M7280 9185 c-10 -12 -10 -19 -2 -27 15 -15 48 14 38 31 -10 15 -21 14 -36 -4z"/>
 <path d="M7046 9131 c-3 -5 0 -14 8 -20 10 -8 16 -8 25 2 6 8 8 17 4 20 -9 10 -31 9 -37 -2z"/>
 <path d="M7354 9129 c-3 -6 -15 -9 -25 -6 -10 3 -23 -1 -28 -7 -8 -9 -2 -19 20 -35 l31 -23 -22 -23 c-24 -25 -20 -45 9 -45 21 0 41 19 41 38 0 8 7 20 17 27 19 14 8 39 -14 30 -13 -4 -14 -3 -3 10 13 16 7 45 -9 45 -5 0 -13 -5 -17 -11z"/>
 <path d="M7224 9119 c-10 -17 13 -36 27 -22 12 12 4 33 -11 33 -5 0 -12 -5 -16 -11z"/>
 <path d="M7165 9081 c-10 -17 15 -45 29 -31 7 7 5 15 -6 26 -11 11 -18 13 -23 5z"/>
 <path d="M2344 9009 c-10 -17 13 -36 27 -22 12 12 4 33 -11 33 -5 0 -12 -5 -16 -11z"/>
 <path d="M2385 8930 c-10 -17 12 -37 25 -24 8 8 6 15 -4 23 -10 9 -16 9 -21 1z"/>
 <path d="M7755 8930 c-10 -16 16 -43 28 -31 11 11 2 41 -12 41 -5 0 -13 -5 -16 -10z"/>
 <path d="M7705 8920 c-3 -6 -10 -8 -15 -5 -11 7 -23 -12 -15 -25 4 -6 12 -7 18 -3 7 4 19 8 27 8 18 0 20 27 3 32 -6 2 -14 -1 -18 -7z"/>
 <path d="M2147 8808 c-20 -22 -25 -34 -17 -42 13 -13 76 47 66 63 -11 17 -19 14 -49 -21z"/>
 <path d="M7895 8800 c-10 -16 16 -43 28 -31 11 11 2 41 -12 41 -5 0 -13 -5 -16 -10z"/>
 <path d="M2094 8759 c-10 -17 13 -36 27 -22 12 12 4 33 -11 33 -5 0 -12 -5 -16 -11z"/>
 <path d="M1964 8749 c-10 -17 13 -36 27 -22 12 12 4 33 -11 33 -5 0 -12 -5 -16 -11z"/>
 <path d="M1785 8540 c-22 -24 -12 -44 16 -30 20 11 25 35 10 44 -4 3 -16 -3 -26 -14z"/>
 <path d="M1514 8419 c-10 -17 13 -36 27 -22 12 12 4 33 -11 33 -5 0 -12 -5 -16 -11z"/>
 <path d="M1516 8337 c-16 -11 -17 -17 -7 -36 15 -27 35 -23 39 8 5 32 -10 44 -32 28z"/>
 <path d="M1380 8279 c-17 -31 -6 -46 34 -45 49 2 55 13 21 41 -37 30 -41 30 -55 4z"/>
 <path d="M1335 8230 c-4 -7 -3 -16 3 -22 14 -14 45 -2 40 15 -6 16 -34 21 -43 7z"/>
 <path d="M1156 7883 c-34 -50 -21 -63 22 -20 19 19 31 40 28 46 -12 19 -24 12 -50 -26z"/>
 <path d="M9111 7516 c-9 -10 -9 -16 -1 -21 17 -10 37 12 24 25 -8 8 -15 6 -23 -4z"/>
 <path d="M9644 6729 c-10 -17 13 -36 27 -22 12 12 4 33 -11 33 -5 0 -12 -5 -16 -11z"/>
 <path d="M9714 6695 c-9 -24 22 -53 38 -37 9 9 10 17 2 29 -15 24 -33 27 -40 8z"/>
 <path d="M455 6658 c-12 -34 -9 -73 4 -73 17 0 35 49 27 70 -7 18 -25 20 -31 3z"/>
 <path d="M9745 6640 c-10 -17 12 -37 25 -24 8 8 6 15 -4 23 -10 9 -16 9 -21 1z"/>
 <path d="M334 6539 c-10 -17 13 -36 27 -22 12 12 4 33 -11 33 -5 0 -12 -5 -16 -11z"/>
 <path d="M9697 6412 c-10 -15 6 -63 24 -73 40 -21 48 22 11 64 -16 18 -28 22 -35 9z"/>
 <path d="M304 6399 c-10 -17 13 -36 27 -22 12 12 4 33 -11 33 -5 0 -12 -5 -16 -11z"/>
 <path d="M9894 6009 c-10 -17 13 -36 27 -22 12 12 4 33 -11 33 -5 0 -12 -5 -16 -11z"/>
 <path d="M9915 5910 c-11 -17 5 -32 21 -19 7 6 11 15 8 20 -7 12 -21 11 -29 -1z"/>
 <path d="M9984 5849 c-10 -17 13 -36 27 -22 12 12 4 33 -11 33 -5 0 -12 -5 -16 -11z"/>
 <path d="M9953 5750 c-23 -9 -28 -44 -10 -68 7 -9 6 -11 -7 -6 -10 4 -18 0 -22 -11 -8 -21 10 -40 28 -29 7 5 19 9 27 9 8 0 19 8 25 18 9 14 7 21 -7 31 -16 13 -16 14 5 28 12 8 18 19 14 26 -8 14 -22 14 -53 2z"/>
 <path d="M10107 5563 c-13 -21 -18 -111 -7 -118 19 -11 33 10 37 58 3 30 0 47 -10 56 -9 6 -17 8 -20 4z"/>
 <path d="M10077 5244 c-10 -10 -9 -52 2 -58 13 -8 33 20 29 40 -3 19 -20 28 -31 18z"/>
 <path d="M460 4425 c-6 -8 -9 -18 -6 -23 3 -4 -2 -28 -10 -52 -11 -32 -12 -46 -4 -54 21 -21 49 29 48 85 -2 54 -9 67 -28 44z"/>
 <path d="M335 4208 c-9 -25 10 -103 25 -103 19 0 26 80 9 101 -14 17 -28 18 -34 2z"/>
 <path d="M446 4191 c-19 -21 -14 -41 9 -41 17 0 38 36 30 50 -9 15 -20 12 -39 -9z"/>
 <path d="M455 4110 c-10 -17 12 -37 25 -24 8 8 6 15 -4 23 -10 9 -16 9 -21 1z"/>
 <path d="M606 3981 c-7 -10 2 -39 18 -60 6 -7 11 -21 11 -30 0 -9 7 -16 15 -16 23 0 19 84 -5 102 -22 15 -32 16 -39 4z"/>
 <path d="M495 3960 c-4 -6 -3 -16 3 -22 6 -6 12 -6 17 2 4 6 3 16 -3 22 -6 6 -12 6 -17 -2z"/>
 <path d="M673 3814 c-8 -21 13 -42 28 -27 13 13 5 43 -11 43 -6 0 -13 -7 -17 -16z"/>
 <path d="M634 3709 c-10 -17 13 -36 27 -22 12 12 4 33 -11 33 -5 0 -12 -5 -16 -11z"/>
 <path d="M9790 3675 c-7 -8 -10 -21 -7 -29 3 -8 -1 -17 -9 -20 -16 -6 -19 -52 -3 -62 15 -9 33 12 34 39 1 12 7 32 14 45 19 36 -4 57 -29 27z"/>
 <path d="M9734 3529 c-10 -17 13 -36 27 -22 12 12 4 33 -11 33 -5 0 -12 -5 -16 -11z"/>
 <path d="M1117 3043 c-16 -15 -5 -41 33 -78 22 -21 37 -41 35 -44 -3 -2 1 -11 8 -20 7 -9 19 -34 26 -56 7 -22 22 -60 34 -85 11 -25 21 -52 21 -60 1 -8 8 -15 16 -15 19 0 18 47 0 92 -11 26 -11 38 -1 71 21 63 9 86 -69 138 -38 25 -72 50 -76 55 -6 11 -18 12 -27 2z"/>
 <path d="M1685 2190 c-4 -6 -1 -17 5 -26 10 -11 16 -12 26 -3 11 9 11 15 3 25 -14 17 -25 18 -34 4z"/>
 <path d="M8590 1985 c-10 -12 -10 -19 -2 -27 15 -15 48 14 38 31 -10 15 -21 14 -36 -4z"/>
 <path d="M8430 1904 c-19 -50 -1 -77 34 -51 13 10 16 19 10 28 -5 8 -9 20 -9 28 0 26 -25 23 -35 -5z"/>
 <path d="M8520 1874 c-30 -49 -33 -65 -12 -72 12 -4 64 73 66 97 2 32 -26 19 -54 -25z"/>
 <path d="M8444 1809 c-10 -17 13 -36 27 -22 12 12 4 33 -11 33 -5 0 -12 -5 -16 -11z"/>
 <path d="M8403 1754 c-9 -23 11 -38 26 -20 13 16 7 36 -10 36 -5 0 -12 -7 -16 -16z"/>
 <path d="M8354 1719 c-10 -17 13 -36 27 -22 12 12 4 33 -11 33 -5 0 -12 -5 -16 -11z"/>
 <path d="M8154 1689 c-10 -17 23 -46 37 -32 7 7 9 19 6 27 -7 18 -33 21 -43 5z"/>
 <path d="M8395 1670 c-16 -18 -19 -18 -30 -3 -7 9 -19 14 -29 10 -22 -9 -20 -24 4 -37 11 -6 18 -15 15 -21 -4 -5 1 -12 10 -15 17 -7 87 64 78 79 -8 13 -30 7 -48 -13z"/>
 <path d="M8227 1633 c-11 -10 -8 -41 4 -49 16 -9 43 21 36 40 -7 16 -28 21 -40 9z"/>
 <path d="M8086 1601 c-33 -35 -30 -69 4 -51 26 14 54 56 45 70 -10 16 -19 12 -49 -19z"/>
 <path d="M7894 1539 c-10 -17 13 -36 27 -22 12 12 4 33 -11 33 -5 0 -12 -5 -16 -11z"/>
 <path d="M8200 1525 c-9 -11 -10 -19 -3 -26 14 -14 56 7 50 24 -6 19 -32 20 -47 2z"/>
 <path d="M8214 1469 c-10 -17 13 -36 27 -22 12 12 4 33 -11 33 -5 0 -12 -5 -16 -11z"/>
 <path d="M7935 1456 c-15 -11 -17 -18 -9 -26 14 -14 57 5 51 23 -5 17 -21 18 -42 3z"/>
 <path d="M3124 1359 c-10 -17 13 -36 27 -22 12 12 4 33 -11 33 -5 0 -12 -5 -16 -11z"/>
 <path d="M3074 1309 c-10 -17 13 -36 27 -22 12 12 4 33 -11 33 -5 0 -12 -5 -16 -11z"/>
 <path d="M7583 1284 c-8 -21 13 -42 28 -27 13 13 5 43 -11 43 -6 0 -13 -7 -17 -16z"/>
 <path d="M7714 1269 c-10 -17 13 -36 27 -22 12 12 4 33 -11 33 -5 0 -12 -5 -16 -11z"/>
 <path d="M7519 1251 c-19 -16 -22 -22 -11 -32 10 -11 17 -10 40 3 15 9 27 23 27 30 0 21 -30 20 -56 -1z"/>
 <path d="M7441 1246 c-6 -7 -9 -20 -5 -29 4 -10 -12 -28 -50 -57 -57 -43 -64 -54 -46 -65 13 -8 50 15 106 67 41 38 42 39 27 68 -17 34 -17 35 -32 16z"/>
 <path d="M7390 1235 c-9 -11 -10 -19 -3 -26 7 -7 14 -5 23 6 9 11 10 19 3 26 -7 7 -14 5 -23 -6z"/>
 <path d="M3165 1210 c-15 -25 66 -80 89 -60 15 12 18 58 4 66 -5 3 -15 1 -23 -6 -9 -7 -15 -8 -20 0 -8 13 -42 13 -50 0z"/>
 <path d="M3663 1184 c-7 -18 9 -51 23 -46 14 3 11 55 -3 59 -7 3 -16 -3 -20 -13z"/>
 <path d="M7275 1170 c-7 -11 12 -50 24 -50 5 0 15 7 22 16 11 14 10 18 -6 30 -22 17 -32 17 -40 4z"/>
 <path d="M3634 1119 c-10 -17 13 -36 27 -22 12 12 4 33 -11 33 -5 0 -12 -5 -16 -11z"/>
 <path d="M6895 1106 c-15 -11 -17 -18 -9 -26 14 -14 57 5 51 23 -5 17 -21 18 -42 3z"/>
 <path d="M6968 1093 c-24 -23 -63 -43 -123 -60 -11 -3 -17 -2 -13 2 10 11 -11 37 -24 29 -5 -3 -5 -11 2 -19 8 -9 8 -15 0 -20 -16 -10 -12 -23 11 -35 29 -16 120 8 127 32 2 10 15 21 28 24 28 7 48 38 40 60 -8 20 -18 18 -48 -13z"/>
 <path d="M3754 1099 c-10 -17 13 -36 27 -22 12 12 4 33 -11 33 -5 0 -12 -5 -16 -11z"/>
 <path d="M3670 1085 c-10 -11 -10 -19 -2 -27 15 -15 44 -2 40 19 -4 23 -22 27 -38 8z"/>
 <path d="M3984 1089 c-10 -17 23 -46 38 -31 8 8 8 15 -2 27 -15 18 -26 19 -36 4z"/>
 <path d="M3534 1049 c-10 -17 13 -36 27 -22 12 12 4 33 -11 33 -5 0 -12 -5 -16 -11z"/>
 <path d="M3944 1049 c-8 -13 9 -32 33 -34 10 -1 26 -6 36 -10 22 -9 50 1 44 18 -2 6 -15 12 -28 13 -13 0 -34 6 -46 12 -27 15 -30 15 -39 1z"/>
 <path d="M7014 1049 c-10 -17 13 -36 27 -22 12 12 4 33 -11 33 -5 0 -12 -5 -16 -11z"/>
 <path d="M7105 1050 c-10 -17 12 -37 25 -24 8 8 6 15 -4 23 -10 9 -16 9 -21 1z"/>
 <path d="M3754 1029 c-10 -17 13 -36 27 -22 12 12 4 33 -11 33 -5 0 -12 -5 -16 -11z"/>
 <path d="M6724 1029 c-10 -17 13 -36 27 -22 12 12 4 33 -11 33 -5 0 -12 -5 -16 -11z"/>
 <path d="M4224 1019 c-10 -17 13 -36 27 -22 12 12 4 33 -11 33 -5 0 -12 -5 -16 -11z"/>
 <path d="M3885 1006 c-18 -13 -16 -46 3 -46 15 0 44 38 37 49 -8 14 -17 14 -40 -3z"/>
 <path d="M4085 1010 c-4 -6 -3 -16 3 -22 6 -6 12 -6 17 2 4 6 3 16 -3 22 -6 6 -12 6 -17 -2z"/>
 <path d="M4374 1009 c-10 -17 13 -36 27 -22 12 12 4 33 -11 33 -5 0 -12 -5 -16 -11z"/>
 <path d="M4125 989 c-10 -15 2 -25 32 -24 37 0 38 29 1 32 -15 1 -30 -2 -33 -8z"/>
 <path d="M6767 983 c-4 -3 -17 -7 -29 -8 -13 -1 -31 -16 -45 -38 l-23 -37 22 -9 c38 -14 43 -12 43 22 0 28 3 32 23 29 25 -4 65 25 56 39 -6 11 -38 12 -47 2z"/>
 <path d="M6928 960 c-29 -27 -31 -50 -4 -50 8 0 20 10 28 22 9 14 25 22 44 23 42 0 39 29 -4 31 -24 1 -42 -6 -64 -26z"/>
 <path d="M3942 965 c-6 -12 -23 -19 -48 -20 -49 -3 -49 -2 -35 -19 14 -16 186 -15 203 2 15 15 3 29 -29 35 -16 3 -40 9 -54 12 -20 5 -29 2 -37 -10z"/>
 <path d="M7044 969 c-10 -17 13 -36 27 -22 12 12 4 33 -11 33 -5 0 -12 -5 -16 -11z"/>
 <path d="M6537 934 c-4 -4 0 -16 10 -26 14 -15 14 -18 1 -18 -8 0 -23 -9 -33 -20 -10 -11 -24 -20 -32 -20 -7 0 -16 -7 -19 -15 -6 -14 -54 -28 -99 -29 -13 -1 -20 -8 -20 -21 0 -11 -3 -25 -7 -31 -19 -29 41 -33 67 -4 10 11 26 20 35 20 9 0 25 9 35 20 20 22 45 26 62 9 14 -14 36 -1 29 17 -3 7 4 20 16 28 19 14 23 14 33 -1 9 -13 16 -13 33 -4 12 6 22 16 22 21 0 11 -58 40 -80 40 -11 0 -17 7 -16 17 1 18 -24 29 -37 17z"/>
 <path d="M4164 919 c-10 -17 13 -36 27 -22 12 12 4 33 -11 33 -5 0 -12 -5 -16 -11z"/>
 <path d="M4225 919 c-8 -12 23 -49 41 -49 25 0 27 23 4 42 -25 21 -36 22 -45 7z"/>
 <path d="M6230 872 c-25 -20 -20 -48 7 -38 9 4 21 1 29 -5 18 -15 59 -7 59 11 0 8 -11 17 -25 18 -13 2 -29 11 -35 19 -9 13 -14 12 -35 -5z"/>
 <path d="M4244 839 c-10 -17 13 -36 27 -22 12 12 4 33 -11 33 -5 0 -12 -5 -16 -11z"/>
 <path d="M6125 840 c-4 -7 -3 -16 3 -22 14 -14 45 -2 40 15 -6 16 -34 21 -43 7z"/>
 <path d="M4094 829 c-10 -17 13 -36 27 -22 12 12 4 33 -11 33 -5 0 -12 -5 -16 -11z"/>
 <path d="M6234 819 c-10 -17 13 -36 27 -22 12 12 4 33 -11 33 -5 0 -12 -5 -16 -11z"/>
 <path d="M6133 789 c-28 -10 -29 -21 -4 -43 18 -16 21 -16 51 -1 58 30 16 69 -47 44z"/>
 <path d="M4244 779 c-8 -14 6 -31 22 -25 8 3 26 0 39 -6 31 -14 58 3 37 24 -14 14 -90 20 -98 7z"/>
 <path d="M5231 776 c-19 -7 -37 -21 -41 -31 -4 -10 -18 -19 -35 -21 -36 -4 -53 -20 -37 -36 9 -9 18 -8 39 2 16 7 32 13 36 12 4 -1 10 5 13 13 5 12 10 13 20 4 19 -16 54 -1 65 28 16 43 1 51 -60 29z"/>
 <path d="M6148 714 c-31 -17 -34 -26 -14 -43 20 -17 79 13 74 37 -4 22 -27 25 -60 6z"/>
 <path d="M6054 697 c-9 -23 3 -62 19 -65 11 -2 21 7 28 24 8 24 7 31 -7 41 -22 16 -33 16 -40 0z"/>
 <path d="M5200 681 c-39 -11 -32 -36 10 -36 28 0 35 4 35 19 0 23 -11 27 -45 17z"/>
 <path d="M6404 679 c-10 -17 13 -36 27 -22 12 12 4 33 -11 33 -5 0 -12 -5 -16 -11z"/>
 <path d="M5105 616 c-15 -11 -17 -18 -9 -26 14 -14 57 5 51 23 -5 17 -21 18 -42 3z"/>
 <path d="M5935 620 c-11 -18 10 -32 41 -28 40 4 38 32 -3 36 -17 2 -34 -2 -38 -8z"/>
 </g>

</svg>